<mxfile host="app.diagrams.net" modified="2023-07-22T00:00:34.905Z" agent="Mozilla/5.0 (Windows NT 10.0; Win64; x64) AppleWebKit/537.36 (KHTML, like Gecko) Chrome/115.0.0.0 Safari/537.36" etag="IifOTPPWnIzfTGPnNoVa" version="21.6.5" type="device">
  <diagram id="C5RBs43oDa-KdzZeNtuy" name="Page-1">
    <mxGraphModel dx="1120" dy="532" grid="1" gridSize="10" guides="1" tooltips="1" connect="1" arrows="1" fold="1" page="1" pageScale="1" pageWidth="827" pageHeight="1169" math="0" shadow="0">
      <root>
        <mxCell id="WIyWlLk6GJQsqaUBKTNV-0" />
        <mxCell id="WIyWlLk6GJQsqaUBKTNV-1" parent="WIyWlLk6GJQsqaUBKTNV-0" />
        <mxCell id="-X0jiBvBApS5PTb-ppX6-296" style="edgeStyle=none;rounded=0;orthogonalLoop=1;jettySize=auto;html=1;entryX=1;entryY=0.5;entryDx=0;entryDy=0;exitX=0;exitY=0;exitDx=0;exitDy=0;" parent="WIyWlLk6GJQsqaUBKTNV-1" source="-X0jiBvBApS5PTb-ppX6-300" target="-X0jiBvBApS5PTb-ppX6-480" edge="1">
          <mxGeometry relative="1" as="geometry" />
        </mxCell>
        <mxCell id="-X0jiBvBApS5PTb-ppX6-297" style="edgeStyle=none;rounded=0;orthogonalLoop=1;jettySize=auto;html=1;entryX=1;entryY=0.5;entryDx=0;entryDy=0;exitX=0;exitY=0;exitDx=0;exitDy=0;" parent="WIyWlLk6GJQsqaUBKTNV-1" source="-X0jiBvBApS5PTb-ppX6-300" target="-X0jiBvBApS5PTb-ppX6-481" edge="1">
          <mxGeometry relative="1" as="geometry" />
        </mxCell>
        <mxCell id="-X0jiBvBApS5PTb-ppX6-298" style="edgeStyle=none;rounded=0;orthogonalLoop=1;jettySize=auto;html=1;entryX=1;entryY=0.5;entryDx=0;entryDy=0;exitX=0;exitY=1;exitDx=0;exitDy=0;" parent="WIyWlLk6GJQsqaUBKTNV-1" source="-X0jiBvBApS5PTb-ppX6-300" target="-X0jiBvBApS5PTb-ppX6-482" edge="1">
          <mxGeometry relative="1" as="geometry" />
        </mxCell>
        <mxCell id="-X0jiBvBApS5PTb-ppX6-299" style="edgeStyle=none;rounded=0;orthogonalLoop=1;jettySize=auto;html=1;entryX=1;entryY=0.5;entryDx=0;entryDy=0;exitX=0;exitY=1;exitDx=0;exitDy=0;" parent="WIyWlLk6GJQsqaUBKTNV-1" source="-X0jiBvBApS5PTb-ppX6-300" target="-X0jiBvBApS5PTb-ppX6-483" edge="1">
          <mxGeometry relative="1" as="geometry" />
        </mxCell>
        <mxCell id="-X0jiBvBApS5PTb-ppX6-300" value="Empresa" style="rounded=1;whiteSpace=wrap;html=1;fontSize=12;glass=0;strokeWidth=1;shadow=0;" parent="WIyWlLk6GJQsqaUBKTNV-1" vertex="1">
          <mxGeometry x="760" y="240" width="120" height="40" as="geometry" />
        </mxCell>
        <mxCell id="-X0jiBvBApS5PTb-ppX6-301" style="edgeStyle=none;rounded=0;orthogonalLoop=1;jettySize=auto;html=1;entryX=0;entryY=0.5;entryDx=0;entryDy=0;exitX=1;exitY=0;exitDx=0;exitDy=0;" parent="WIyWlLk6GJQsqaUBKTNV-1" source="-X0jiBvBApS5PTb-ppX6-304" target="-X0jiBvBApS5PTb-ppX6-484" edge="1">
          <mxGeometry relative="1" as="geometry" />
        </mxCell>
        <mxCell id="-X0jiBvBApS5PTb-ppX6-302" style="edgeStyle=none;rounded=0;orthogonalLoop=1;jettySize=auto;html=1;entryX=0;entryY=0.5;entryDx=0;entryDy=0;" parent="WIyWlLk6GJQsqaUBKTNV-1" source="-X0jiBvBApS5PTb-ppX6-304" target="-X0jiBvBApS5PTb-ppX6-485" edge="1">
          <mxGeometry relative="1" as="geometry" />
        </mxCell>
        <mxCell id="-X0jiBvBApS5PTb-ppX6-303" style="edgeStyle=none;rounded=0;orthogonalLoop=1;jettySize=auto;html=1;entryX=0;entryY=0.5;entryDx=0;entryDy=0;exitX=1;exitY=1;exitDx=0;exitDy=0;" parent="WIyWlLk6GJQsqaUBKTNV-1" source="-X0jiBvBApS5PTb-ppX6-304" target="-X0jiBvBApS5PTb-ppX6-486" edge="1">
          <mxGeometry relative="1" as="geometry" />
        </mxCell>
        <mxCell id="-X0jiBvBApS5PTb-ppX6-304" value="Departamento" style="rounded=1;whiteSpace=wrap;html=1;fontSize=12;glass=0;strokeWidth=1;shadow=0;" parent="WIyWlLk6GJQsqaUBKTNV-1" vertex="1">
          <mxGeometry x="1622.5" y="240" width="120" height="40" as="geometry" />
        </mxCell>
        <mxCell id="-X0jiBvBApS5PTb-ppX6-305" style="edgeStyle=none;rounded=0;orthogonalLoop=1;jettySize=auto;html=1;entryX=0.5;entryY=1;entryDx=0;entryDy=0;" parent="WIyWlLk6GJQsqaUBKTNV-1" source="-X0jiBvBApS5PTb-ppX6-308" target="-X0jiBvBApS5PTb-ppX6-488" edge="1">
          <mxGeometry relative="1" as="geometry" />
        </mxCell>
        <mxCell id="-X0jiBvBApS5PTb-ppX6-306" style="edgeStyle=none;rounded=0;orthogonalLoop=1;jettySize=auto;html=1;entryX=0.5;entryY=1;entryDx=0;entryDy=0;" parent="WIyWlLk6GJQsqaUBKTNV-1" source="-X0jiBvBApS5PTb-ppX6-308" target="-X0jiBvBApS5PTb-ppX6-489" edge="1">
          <mxGeometry relative="1" as="geometry" />
        </mxCell>
        <mxCell id="-X0jiBvBApS5PTb-ppX6-307" style="edgeStyle=none;rounded=0;orthogonalLoop=1;jettySize=auto;html=1;entryX=0.5;entryY=1;entryDx=0;entryDy=0;" parent="WIyWlLk6GJQsqaUBKTNV-1" source="-X0jiBvBApS5PTb-ppX6-308" target="-X0jiBvBApS5PTb-ppX6-487" edge="1">
          <mxGeometry relative="1" as="geometry" />
        </mxCell>
        <mxCell id="-X0jiBvBApS5PTb-ppX6-308" value="Empresa_Departamento" style="rounded=1;whiteSpace=wrap;html=1;fontSize=12;glass=0;strokeWidth=1;shadow=0;" parent="WIyWlLk6GJQsqaUBKTNV-1" vertex="1">
          <mxGeometry x="1170" y="240" width="160" height="40" as="geometry" />
        </mxCell>
        <mxCell id="-X0jiBvBApS5PTb-ppX6-309" style="edgeStyle=none;rounded=0;orthogonalLoop=1;jettySize=auto;html=1;entryX=0.5;entryY=1;entryDx=0;entryDy=0;exitX=0;exitY=0;exitDx=0;exitDy=0;" parent="WIyWlLk6GJQsqaUBKTNV-1" source="-X0jiBvBApS5PTb-ppX6-326" target="-X0jiBvBApS5PTb-ppX6-490" edge="1">
          <mxGeometry relative="1" as="geometry" />
        </mxCell>
        <mxCell id="-X0jiBvBApS5PTb-ppX6-310" style="edgeStyle=none;rounded=0;orthogonalLoop=1;jettySize=auto;html=1;entryX=0.5;entryY=1;entryDx=0;entryDy=0;exitX=0;exitY=0;exitDx=0;exitDy=0;" parent="WIyWlLk6GJQsqaUBKTNV-1" source="-X0jiBvBApS5PTb-ppX6-326" target="-X0jiBvBApS5PTb-ppX6-491" edge="1">
          <mxGeometry relative="1" as="geometry" />
        </mxCell>
        <mxCell id="-X0jiBvBApS5PTb-ppX6-311" style="edgeStyle=none;rounded=0;orthogonalLoop=1;jettySize=auto;html=1;entryX=1;entryY=0.5;entryDx=0;entryDy=0;exitX=0;exitY=0;exitDx=0;exitDy=0;" parent="WIyWlLk6GJQsqaUBKTNV-1" source="-X0jiBvBApS5PTb-ppX6-326" target="-X0jiBvBApS5PTb-ppX6-492" edge="1">
          <mxGeometry relative="1" as="geometry" />
        </mxCell>
        <mxCell id="-X0jiBvBApS5PTb-ppX6-312" style="edgeStyle=none;rounded=0;orthogonalLoop=1;jettySize=auto;html=1;entryX=1;entryY=0.5;entryDx=0;entryDy=0;" parent="WIyWlLk6GJQsqaUBKTNV-1" source="-X0jiBvBApS5PTb-ppX6-326" target="-X0jiBvBApS5PTb-ppX6-500" edge="1">
          <mxGeometry relative="1" as="geometry" />
        </mxCell>
        <mxCell id="-X0jiBvBApS5PTb-ppX6-313" style="edgeStyle=none;rounded=0;orthogonalLoop=1;jettySize=auto;html=1;entryX=1;entryY=0.5;entryDx=0;entryDy=0;" parent="WIyWlLk6GJQsqaUBKTNV-1" source="-X0jiBvBApS5PTb-ppX6-326" target="-X0jiBvBApS5PTb-ppX6-493" edge="1">
          <mxGeometry relative="1" as="geometry" />
        </mxCell>
        <mxCell id="-X0jiBvBApS5PTb-ppX6-314" style="edgeStyle=none;rounded=0;orthogonalLoop=1;jettySize=auto;html=1;entryX=1;entryY=0.5;entryDx=0;entryDy=0;" parent="WIyWlLk6GJQsqaUBKTNV-1" source="-X0jiBvBApS5PTb-ppX6-326" target="-X0jiBvBApS5PTb-ppX6-494" edge="1">
          <mxGeometry relative="1" as="geometry" />
        </mxCell>
        <mxCell id="-X0jiBvBApS5PTb-ppX6-315" style="edgeStyle=none;rounded=0;orthogonalLoop=1;jettySize=auto;html=1;entryX=1;entryY=0.5;entryDx=0;entryDy=0;" parent="WIyWlLk6GJQsqaUBKTNV-1" source="-X0jiBvBApS5PTb-ppX6-326" target="-X0jiBvBApS5PTb-ppX6-495" edge="1">
          <mxGeometry relative="1" as="geometry" />
        </mxCell>
        <mxCell id="-X0jiBvBApS5PTb-ppX6-316" style="edgeStyle=none;rounded=0;orthogonalLoop=1;jettySize=auto;html=1;entryX=1;entryY=0.5;entryDx=0;entryDy=0;" parent="WIyWlLk6GJQsqaUBKTNV-1" source="-X0jiBvBApS5PTb-ppX6-326" target="-X0jiBvBApS5PTb-ppX6-496" edge="1">
          <mxGeometry relative="1" as="geometry" />
        </mxCell>
        <mxCell id="-X0jiBvBApS5PTb-ppX6-317" style="edgeStyle=none;rounded=0;orthogonalLoop=1;jettySize=auto;html=1;entryX=1;entryY=0.5;entryDx=0;entryDy=0;" parent="WIyWlLk6GJQsqaUBKTNV-1" source="-X0jiBvBApS5PTb-ppX6-326" target="-X0jiBvBApS5PTb-ppX6-497" edge="1">
          <mxGeometry relative="1" as="geometry" />
        </mxCell>
        <mxCell id="-X0jiBvBApS5PTb-ppX6-318" style="edgeStyle=none;rounded=0;orthogonalLoop=1;jettySize=auto;html=1;entryX=1;entryY=0;entryDx=0;entryDy=0;exitX=0;exitY=1;exitDx=0;exitDy=0;" parent="WIyWlLk6GJQsqaUBKTNV-1" source="-X0jiBvBApS5PTb-ppX6-326" target="-X0jiBvBApS5PTb-ppX6-498" edge="1">
          <mxGeometry relative="1" as="geometry" />
        </mxCell>
        <mxCell id="-X0jiBvBApS5PTb-ppX6-319" style="edgeStyle=none;rounded=0;orthogonalLoop=1;jettySize=auto;html=1;entryX=0.5;entryY=0;entryDx=0;entryDy=0;exitX=0;exitY=1;exitDx=0;exitDy=0;" parent="WIyWlLk6GJQsqaUBKTNV-1" source="-X0jiBvBApS5PTb-ppX6-326" target="-X0jiBvBApS5PTb-ppX6-499" edge="1">
          <mxGeometry relative="1" as="geometry" />
        </mxCell>
        <mxCell id="-X0jiBvBApS5PTb-ppX6-320" style="edgeStyle=none;rounded=0;orthogonalLoop=1;jettySize=auto;html=1;entryX=0.5;entryY=0;entryDx=0;entryDy=0;exitX=0;exitY=1;exitDx=0;exitDy=0;" parent="WIyWlLk6GJQsqaUBKTNV-1" source="-X0jiBvBApS5PTb-ppX6-326" target="-X0jiBvBApS5PTb-ppX6-501" edge="1">
          <mxGeometry relative="1" as="geometry" />
        </mxCell>
        <mxCell id="-X0jiBvBApS5PTb-ppX6-321" style="edgeStyle=none;rounded=0;orthogonalLoop=1;jettySize=auto;html=1;entryX=0.5;entryY=1;entryDx=0;entryDy=0;exitX=1;exitY=0;exitDx=0;exitDy=0;" parent="WIyWlLk6GJQsqaUBKTNV-1" source="-X0jiBvBApS5PTb-ppX6-326" target="-X0jiBvBApS5PTb-ppX6-502" edge="1">
          <mxGeometry relative="1" as="geometry" />
        </mxCell>
        <mxCell id="-X0jiBvBApS5PTb-ppX6-322" style="edgeStyle=none;rounded=0;orthogonalLoop=1;jettySize=auto;html=1;entryX=0.5;entryY=1;entryDx=0;entryDy=0;" parent="WIyWlLk6GJQsqaUBKTNV-1" source="-X0jiBvBApS5PTb-ppX6-326" target="-X0jiBvBApS5PTb-ppX6-503" edge="1">
          <mxGeometry relative="1" as="geometry" />
        </mxCell>
        <mxCell id="-X0jiBvBApS5PTb-ppX6-323" style="edgeStyle=none;rounded=0;orthogonalLoop=1;jettySize=auto;html=1;entryX=0;entryY=0.5;entryDx=0;entryDy=0;exitX=1;exitY=1;exitDx=0;exitDy=0;" parent="WIyWlLk6GJQsqaUBKTNV-1" source="-X0jiBvBApS5PTb-ppX6-326" target="-X0jiBvBApS5PTb-ppX6-506" edge="1">
          <mxGeometry relative="1" as="geometry" />
        </mxCell>
        <mxCell id="-X0jiBvBApS5PTb-ppX6-324" style="edgeStyle=none;rounded=0;orthogonalLoop=1;jettySize=auto;html=1;entryX=0;entryY=0.5;entryDx=0;entryDy=0;exitX=1;exitY=1;exitDx=0;exitDy=0;" parent="WIyWlLk6GJQsqaUBKTNV-1" source="-X0jiBvBApS5PTb-ppX6-326" target="-X0jiBvBApS5PTb-ppX6-505" edge="1">
          <mxGeometry relative="1" as="geometry" />
        </mxCell>
        <mxCell id="-X0jiBvBApS5PTb-ppX6-325" style="edgeStyle=none;rounded=0;orthogonalLoop=1;jettySize=auto;html=1;entryX=0.5;entryY=0;entryDx=0;entryDy=0;exitX=1;exitY=1;exitDx=0;exitDy=0;" parent="WIyWlLk6GJQsqaUBKTNV-1" source="-X0jiBvBApS5PTb-ppX6-326" target="-X0jiBvBApS5PTb-ppX6-504" edge="1">
          <mxGeometry relative="1" as="geometry" />
        </mxCell>
        <mxCell id="-X0jiBvBApS5PTb-ppX6-326" value="Personal" style="rounded=1;whiteSpace=wrap;html=1;fontSize=12;glass=0;strokeWidth=1;shadow=0;" parent="WIyWlLk6GJQsqaUBKTNV-1" vertex="1">
          <mxGeometry x="1190" y="460" width="120" height="40" as="geometry" />
        </mxCell>
        <mxCell id="-X0jiBvBApS5PTb-ppX6-327" style="edgeStyle=none;rounded=0;orthogonalLoop=1;jettySize=auto;html=1;entryX=0.5;entryY=0;entryDx=0;entryDy=0;" parent="WIyWlLk6GJQsqaUBKTNV-1" source="-X0jiBvBApS5PTb-ppX6-332" target="-X0jiBvBApS5PTb-ppX6-581" edge="1">
          <mxGeometry relative="1" as="geometry" />
        </mxCell>
        <mxCell id="-X0jiBvBApS5PTb-ppX6-328" style="edgeStyle=none;rounded=0;orthogonalLoop=1;jettySize=auto;html=1;entryX=1;entryY=0;entryDx=0;entryDy=0;exitX=0;exitY=1;exitDx=0;exitDy=0;" parent="WIyWlLk6GJQsqaUBKTNV-1" source="-X0jiBvBApS5PTb-ppX6-332" target="-X0jiBvBApS5PTb-ppX6-580" edge="1">
          <mxGeometry relative="1" as="geometry" />
        </mxCell>
        <mxCell id="-X0jiBvBApS5PTb-ppX6-329" style="edgeStyle=none;rounded=0;orthogonalLoop=1;jettySize=auto;html=1;entryX=1;entryY=0.5;entryDx=0;entryDy=0;exitX=0;exitY=1;exitDx=0;exitDy=0;" parent="WIyWlLk6GJQsqaUBKTNV-1" source="-X0jiBvBApS5PTb-ppX6-332" target="-X0jiBvBApS5PTb-ppX6-579" edge="1">
          <mxGeometry relative="1" as="geometry" />
        </mxCell>
        <mxCell id="-X0jiBvBApS5PTb-ppX6-330" style="edgeStyle=none;rounded=0;orthogonalLoop=1;jettySize=auto;html=1;entryX=0;entryY=0;entryDx=0;entryDy=0;exitX=1;exitY=1;exitDx=0;exitDy=0;" parent="WIyWlLk6GJQsqaUBKTNV-1" source="-X0jiBvBApS5PTb-ppX6-332" target="-X0jiBvBApS5PTb-ppX6-582" edge="1">
          <mxGeometry relative="1" as="geometry" />
        </mxCell>
        <mxCell id="-X0jiBvBApS5PTb-ppX6-331" style="edgeStyle=none;rounded=0;orthogonalLoop=1;jettySize=auto;html=1;entryX=0;entryY=0.5;entryDx=0;entryDy=0;exitX=1;exitY=1;exitDx=0;exitDy=0;" parent="WIyWlLk6GJQsqaUBKTNV-1" source="-X0jiBvBApS5PTb-ppX6-332" target="-X0jiBvBApS5PTb-ppX6-583" edge="1">
          <mxGeometry relative="1" as="geometry" />
        </mxCell>
        <mxCell id="-X0jiBvBApS5PTb-ppX6-332" value="Ausente" style="rounded=1;whiteSpace=wrap;html=1;fontSize=12;glass=0;strokeWidth=1;shadow=0;" parent="WIyWlLk6GJQsqaUBKTNV-1" vertex="1">
          <mxGeometry x="1710" y="1481.12" width="120" height="40" as="geometry" />
        </mxCell>
        <mxCell id="-X0jiBvBApS5PTb-ppX6-333" style="edgeStyle=none;rounded=0;orthogonalLoop=1;jettySize=auto;html=1;entryX=1;entryY=0.5;entryDx=0;entryDy=0;exitX=0;exitY=0;exitDx=0;exitDy=0;" parent="WIyWlLk6GJQsqaUBKTNV-1" source="-X0jiBvBApS5PTb-ppX6-344" target="-X0jiBvBApS5PTb-ppX6-515" edge="1">
          <mxGeometry relative="1" as="geometry" />
        </mxCell>
        <mxCell id="-X0jiBvBApS5PTb-ppX6-334" style="edgeStyle=none;rounded=0;orthogonalLoop=1;jettySize=auto;html=1;entryX=1;entryY=0.5;entryDx=0;entryDy=0;exitX=0;exitY=0;exitDx=0;exitDy=0;" parent="WIyWlLk6GJQsqaUBKTNV-1" source="-X0jiBvBApS5PTb-ppX6-344" target="-X0jiBvBApS5PTb-ppX6-511" edge="1">
          <mxGeometry relative="1" as="geometry" />
        </mxCell>
        <mxCell id="-X0jiBvBApS5PTb-ppX6-335" style="edgeStyle=none;rounded=0;orthogonalLoop=1;jettySize=auto;html=1;entryX=1;entryY=0.5;entryDx=0;entryDy=0;exitX=0;exitY=0;exitDx=0;exitDy=0;" parent="WIyWlLk6GJQsqaUBKTNV-1" source="-X0jiBvBApS5PTb-ppX6-344" target="-X0jiBvBApS5PTb-ppX6-512" edge="1">
          <mxGeometry relative="1" as="geometry" />
        </mxCell>
        <mxCell id="-X0jiBvBApS5PTb-ppX6-336" style="edgeStyle=none;rounded=0;orthogonalLoop=1;jettySize=auto;html=1;entryX=1;entryY=0.5;entryDx=0;entryDy=0;exitX=0;exitY=0;exitDx=0;exitDy=0;" parent="WIyWlLk6GJQsqaUBKTNV-1" source="-X0jiBvBApS5PTb-ppX6-344" target="-X0jiBvBApS5PTb-ppX6-513" edge="1">
          <mxGeometry relative="1" as="geometry" />
        </mxCell>
        <mxCell id="-X0jiBvBApS5PTb-ppX6-337" style="edgeStyle=none;rounded=0;orthogonalLoop=1;jettySize=auto;html=1;entryX=1;entryY=0.5;entryDx=0;entryDy=0;exitX=0;exitY=0;exitDx=0;exitDy=0;" parent="WIyWlLk6GJQsqaUBKTNV-1" source="-X0jiBvBApS5PTb-ppX6-344" target="-X0jiBvBApS5PTb-ppX6-514" edge="1">
          <mxGeometry relative="1" as="geometry" />
        </mxCell>
        <mxCell id="-X0jiBvBApS5PTb-ppX6-338" style="edgeStyle=none;rounded=0;orthogonalLoop=1;jettySize=auto;html=1;entryX=1;entryY=0.5;entryDx=0;entryDy=0;" parent="WIyWlLk6GJQsqaUBKTNV-1" source="-X0jiBvBApS5PTb-ppX6-344" target="-X0jiBvBApS5PTb-ppX6-516" edge="1">
          <mxGeometry relative="1" as="geometry" />
        </mxCell>
        <mxCell id="-X0jiBvBApS5PTb-ppX6-339" style="edgeStyle=none;rounded=0;orthogonalLoop=1;jettySize=auto;html=1;entryX=1;entryY=0.5;entryDx=0;entryDy=0;" parent="WIyWlLk6GJQsqaUBKTNV-1" source="-X0jiBvBApS5PTb-ppX6-344" target="-X0jiBvBApS5PTb-ppX6-517" edge="1">
          <mxGeometry relative="1" as="geometry" />
        </mxCell>
        <mxCell id="-X0jiBvBApS5PTb-ppX6-340" style="edgeStyle=none;rounded=0;orthogonalLoop=1;jettySize=auto;html=1;entryX=1;entryY=0.5;entryDx=0;entryDy=0;exitX=0;exitY=1;exitDx=0;exitDy=0;" parent="WIyWlLk6GJQsqaUBKTNV-1" source="-X0jiBvBApS5PTb-ppX6-344" target="-X0jiBvBApS5PTb-ppX6-518" edge="1">
          <mxGeometry relative="1" as="geometry" />
        </mxCell>
        <mxCell id="-X0jiBvBApS5PTb-ppX6-341" style="edgeStyle=none;rounded=0;orthogonalLoop=1;jettySize=auto;html=1;entryX=1;entryY=0.5;entryDx=0;entryDy=0;exitX=0;exitY=1;exitDx=0;exitDy=0;" parent="WIyWlLk6GJQsqaUBKTNV-1" source="-X0jiBvBApS5PTb-ppX6-344" target="-X0jiBvBApS5PTb-ppX6-519" edge="1">
          <mxGeometry relative="1" as="geometry" />
        </mxCell>
        <mxCell id="-X0jiBvBApS5PTb-ppX6-342" style="edgeStyle=none;rounded=0;orthogonalLoop=1;jettySize=auto;html=1;entryX=0.5;entryY=0;entryDx=0;entryDy=0;exitX=0;exitY=1;exitDx=0;exitDy=0;" parent="WIyWlLk6GJQsqaUBKTNV-1" source="-X0jiBvBApS5PTb-ppX6-344" target="-X0jiBvBApS5PTb-ppX6-520" edge="1">
          <mxGeometry relative="1" as="geometry" />
        </mxCell>
        <mxCell id="-X0jiBvBApS5PTb-ppX6-343" style="edgeStyle=none;rounded=0;orthogonalLoop=1;jettySize=auto;html=1;entryX=0;entryY=0.5;entryDx=0;entryDy=0;exitX=0;exitY=1;exitDx=0;exitDy=0;" parent="WIyWlLk6GJQsqaUBKTNV-1" source="-X0jiBvBApS5PTb-ppX6-344" target="-X0jiBvBApS5PTb-ppX6-521" edge="1">
          <mxGeometry relative="1" as="geometry" />
        </mxCell>
        <mxCell id="-X0jiBvBApS5PTb-ppX6-344" value="Saldo_Vacacion" style="rounded=1;whiteSpace=wrap;html=1;fontSize=12;glass=0;strokeWidth=1;shadow=0;" parent="WIyWlLk6GJQsqaUBKTNV-1" vertex="1">
          <mxGeometry x="720" y="692.25" width="120" height="40" as="geometry" />
        </mxCell>
        <mxCell id="-X0jiBvBApS5PTb-ppX6-345" style="edgeStyle=none;rounded=0;orthogonalLoop=1;jettySize=auto;html=1;entryX=0.5;entryY=0;entryDx=0;entryDy=0;exitX=1;exitY=1;exitDx=0;exitDy=0;" parent="WIyWlLk6GJQsqaUBKTNV-1" source="-X0jiBvBApS5PTb-ppX6-355" target="-X0jiBvBApS5PTb-ppX6-528" edge="1">
          <mxGeometry relative="1" as="geometry" />
        </mxCell>
        <mxCell id="-X0jiBvBApS5PTb-ppX6-346" style="edgeStyle=none;rounded=0;orthogonalLoop=1;jettySize=auto;html=1;entryX=0.5;entryY=1;entryDx=0;entryDy=0;exitX=1;exitY=0;exitDx=0;exitDy=0;" parent="WIyWlLk6GJQsqaUBKTNV-1" source="-X0jiBvBApS5PTb-ppX6-355" target="-X0jiBvBApS5PTb-ppX6-508" edge="1">
          <mxGeometry relative="1" as="geometry" />
        </mxCell>
        <mxCell id="-X0jiBvBApS5PTb-ppX6-347" style="edgeStyle=none;rounded=0;orthogonalLoop=1;jettySize=auto;html=1;entryX=0.5;entryY=1;entryDx=0;entryDy=0;exitX=1;exitY=0;exitDx=0;exitDy=0;" parent="WIyWlLk6GJQsqaUBKTNV-1" source="-X0jiBvBApS5PTb-ppX6-355" target="-X0jiBvBApS5PTb-ppX6-522" edge="1">
          <mxGeometry relative="1" as="geometry" />
        </mxCell>
        <mxCell id="-X0jiBvBApS5PTb-ppX6-348" style="edgeStyle=none;rounded=0;orthogonalLoop=1;jettySize=auto;html=1;entryX=0;entryY=0.5;entryDx=0;entryDy=0;exitX=1;exitY=0;exitDx=0;exitDy=0;" parent="WIyWlLk6GJQsqaUBKTNV-1" source="-X0jiBvBApS5PTb-ppX6-355" target="-X0jiBvBApS5PTb-ppX6-523" edge="1">
          <mxGeometry relative="1" as="geometry" />
        </mxCell>
        <mxCell id="-X0jiBvBApS5PTb-ppX6-349" style="edgeStyle=none;rounded=0;orthogonalLoop=1;jettySize=auto;html=1;entryX=0;entryY=0.5;entryDx=0;entryDy=0;" parent="WIyWlLk6GJQsqaUBKTNV-1" source="-X0jiBvBApS5PTb-ppX6-355" target="-X0jiBvBApS5PTb-ppX6-509" edge="1">
          <mxGeometry relative="1" as="geometry" />
        </mxCell>
        <mxCell id="-X0jiBvBApS5PTb-ppX6-350" style="edgeStyle=none;rounded=0;orthogonalLoop=1;jettySize=auto;html=1;entryX=0;entryY=0.5;entryDx=0;entryDy=0;" parent="WIyWlLk6GJQsqaUBKTNV-1" source="-X0jiBvBApS5PTb-ppX6-355" target="-X0jiBvBApS5PTb-ppX6-510" edge="1">
          <mxGeometry relative="1" as="geometry" />
        </mxCell>
        <mxCell id="-X0jiBvBApS5PTb-ppX6-351" style="edgeStyle=none;rounded=0;orthogonalLoop=1;jettySize=auto;html=1;entryX=0;entryY=0.5;entryDx=0;entryDy=0;" parent="WIyWlLk6GJQsqaUBKTNV-1" source="-X0jiBvBApS5PTb-ppX6-355" target="-X0jiBvBApS5PTb-ppX6-524" edge="1">
          <mxGeometry relative="1" as="geometry" />
        </mxCell>
        <mxCell id="-X0jiBvBApS5PTb-ppX6-352" style="edgeStyle=none;rounded=0;orthogonalLoop=1;jettySize=auto;html=1;entryX=0;entryY=0.5;entryDx=0;entryDy=0;" parent="WIyWlLk6GJQsqaUBKTNV-1" source="-X0jiBvBApS5PTb-ppX6-355" target="-X0jiBvBApS5PTb-ppX6-525" edge="1">
          <mxGeometry relative="1" as="geometry" />
        </mxCell>
        <mxCell id="-X0jiBvBApS5PTb-ppX6-353" style="edgeStyle=none;rounded=0;orthogonalLoop=1;jettySize=auto;html=1;entryX=0;entryY=0.5;entryDx=0;entryDy=0;exitX=1;exitY=1;exitDx=0;exitDy=0;" parent="WIyWlLk6GJQsqaUBKTNV-1" source="-X0jiBvBApS5PTb-ppX6-355" target="-X0jiBvBApS5PTb-ppX6-526" edge="1">
          <mxGeometry relative="1" as="geometry" />
        </mxCell>
        <mxCell id="-X0jiBvBApS5PTb-ppX6-354" style="edgeStyle=none;rounded=0;orthogonalLoop=1;jettySize=auto;html=1;entryX=0.5;entryY=0;entryDx=0;entryDy=0;exitX=1;exitY=1;exitDx=0;exitDy=0;" parent="WIyWlLk6GJQsqaUBKTNV-1" source="-X0jiBvBApS5PTb-ppX6-355" target="-X0jiBvBApS5PTb-ppX6-527" edge="1">
          <mxGeometry relative="1" as="geometry" />
        </mxCell>
        <mxCell id="-X0jiBvBApS5PTb-ppX6-355" value="Planificacion_Vacacion" style="rounded=1;whiteSpace=wrap;html=1;fontSize=12;glass=0;strokeWidth=1;shadow=0;" parent="WIyWlLk6GJQsqaUBKTNV-1" vertex="1">
          <mxGeometry x="1690" y="460" width="160" height="40" as="geometry" />
        </mxCell>
        <mxCell id="-X0jiBvBApS5PTb-ppX6-356" style="edgeStyle=none;rounded=0;orthogonalLoop=1;jettySize=auto;html=1;entryX=0.5;entryY=1;entryDx=0;entryDy=0;" parent="WIyWlLk6GJQsqaUBKTNV-1" source="-X0jiBvBApS5PTb-ppX6-372" target="-X0jiBvBApS5PTb-ppX6-533" edge="1">
          <mxGeometry relative="1" as="geometry" />
        </mxCell>
        <mxCell id="-X0jiBvBApS5PTb-ppX6-357" style="edgeStyle=none;rounded=0;orthogonalLoop=1;jettySize=auto;html=1;entryX=1;entryY=1;entryDx=0;entryDy=0;" parent="WIyWlLk6GJQsqaUBKTNV-1" source="-X0jiBvBApS5PTb-ppX6-372" target="-X0jiBvBApS5PTb-ppX6-532" edge="1">
          <mxGeometry relative="1" as="geometry" />
        </mxCell>
        <mxCell id="-X0jiBvBApS5PTb-ppX6-358" style="edgeStyle=none;rounded=0;orthogonalLoop=1;jettySize=auto;html=1;entryX=0;entryY=1;entryDx=0;entryDy=0;" parent="WIyWlLk6GJQsqaUBKTNV-1" source="-X0jiBvBApS5PTb-ppX6-372" target="-X0jiBvBApS5PTb-ppX6-534" edge="1">
          <mxGeometry relative="1" as="geometry" />
        </mxCell>
        <mxCell id="-X0jiBvBApS5PTb-ppX6-359" style="edgeStyle=none;rounded=0;orthogonalLoop=1;jettySize=auto;html=1;entryX=0;entryY=1;entryDx=0;entryDy=0;" parent="WIyWlLk6GJQsqaUBKTNV-1" source="-X0jiBvBApS5PTb-ppX6-372" target="-X0jiBvBApS5PTb-ppX6-535" edge="1">
          <mxGeometry relative="1" as="geometry" />
        </mxCell>
        <mxCell id="-X0jiBvBApS5PTb-ppX6-360" style="edgeStyle=none;rounded=0;orthogonalLoop=1;jettySize=auto;html=1;entryX=0;entryY=1;entryDx=0;entryDy=0;" parent="WIyWlLk6GJQsqaUBKTNV-1" source="-X0jiBvBApS5PTb-ppX6-372" target="-X0jiBvBApS5PTb-ppX6-536" edge="1">
          <mxGeometry relative="1" as="geometry" />
        </mxCell>
        <mxCell id="-X0jiBvBApS5PTb-ppX6-361" style="edgeStyle=none;rounded=0;orthogonalLoop=1;jettySize=auto;html=1;entryX=0;entryY=0.5;entryDx=0;entryDy=0;" parent="WIyWlLk6GJQsqaUBKTNV-1" source="-X0jiBvBApS5PTb-ppX6-372" target="-X0jiBvBApS5PTb-ppX6-537" edge="1">
          <mxGeometry relative="1" as="geometry" />
        </mxCell>
        <mxCell id="-X0jiBvBApS5PTb-ppX6-362" style="edgeStyle=none;rounded=0;orthogonalLoop=1;jettySize=auto;html=1;entryX=1;entryY=1;entryDx=0;entryDy=0;" parent="WIyWlLk6GJQsqaUBKTNV-1" source="-X0jiBvBApS5PTb-ppX6-372" target="-X0jiBvBApS5PTb-ppX6-531" edge="1">
          <mxGeometry relative="1" as="geometry" />
        </mxCell>
        <mxCell id="-X0jiBvBApS5PTb-ppX6-363" style="edgeStyle=none;rounded=0;orthogonalLoop=1;jettySize=auto;html=1;entryX=1;entryY=1;entryDx=0;entryDy=0;" parent="WIyWlLk6GJQsqaUBKTNV-1" source="-X0jiBvBApS5PTb-ppX6-372" target="-X0jiBvBApS5PTb-ppX6-530" edge="1">
          <mxGeometry relative="1" as="geometry" />
        </mxCell>
        <mxCell id="-X0jiBvBApS5PTb-ppX6-364" style="edgeStyle=none;rounded=0;orthogonalLoop=1;jettySize=auto;html=1;entryX=1;entryY=0.5;entryDx=0;entryDy=0;" parent="WIyWlLk6GJQsqaUBKTNV-1" source="-X0jiBvBApS5PTb-ppX6-372" target="-X0jiBvBApS5PTb-ppX6-529" edge="1">
          <mxGeometry relative="1" as="geometry" />
        </mxCell>
        <mxCell id="-X0jiBvBApS5PTb-ppX6-365" style="edgeStyle=none;rounded=0;orthogonalLoop=1;jettySize=auto;html=1;entryX=0;entryY=0.5;entryDx=0;entryDy=0;" parent="WIyWlLk6GJQsqaUBKTNV-1" source="-X0jiBvBApS5PTb-ppX6-372" target="-X0jiBvBApS5PTb-ppX6-541" edge="1">
          <mxGeometry relative="1" as="geometry" />
        </mxCell>
        <mxCell id="-X0jiBvBApS5PTb-ppX6-366" style="edgeStyle=none;rounded=0;orthogonalLoop=1;jettySize=auto;html=1;entryX=0;entryY=0.5;entryDx=0;entryDy=0;exitX=1;exitY=1;exitDx=0;exitDy=0;" parent="WIyWlLk6GJQsqaUBKTNV-1" source="-X0jiBvBApS5PTb-ppX6-372" target="-X0jiBvBApS5PTb-ppX6-543" edge="1">
          <mxGeometry relative="1" as="geometry" />
        </mxCell>
        <mxCell id="-X0jiBvBApS5PTb-ppX6-367" style="edgeStyle=none;rounded=0;orthogonalLoop=1;jettySize=auto;html=1;entryX=0;entryY=0;entryDx=0;entryDy=0;exitX=1;exitY=1;exitDx=0;exitDy=0;" parent="WIyWlLk6GJQsqaUBKTNV-1" source="-X0jiBvBApS5PTb-ppX6-372" target="-X0jiBvBApS5PTb-ppX6-544" edge="1">
          <mxGeometry relative="1" as="geometry" />
        </mxCell>
        <mxCell id="-X0jiBvBApS5PTb-ppX6-368" style="edgeStyle=none;rounded=0;orthogonalLoop=1;jettySize=auto;html=1;entryX=0.5;entryY=0;entryDx=0;entryDy=0;exitX=1;exitY=1;exitDx=0;exitDy=0;" parent="WIyWlLk6GJQsqaUBKTNV-1" source="-X0jiBvBApS5PTb-ppX6-372" target="-X0jiBvBApS5PTb-ppX6-540" edge="1">
          <mxGeometry relative="1" as="geometry" />
        </mxCell>
        <mxCell id="-X0jiBvBApS5PTb-ppX6-369" style="edgeStyle=none;rounded=0;orthogonalLoop=1;jettySize=auto;html=1;entryX=1;entryY=0.5;entryDx=0;entryDy=0;" parent="WIyWlLk6GJQsqaUBKTNV-1" source="-X0jiBvBApS5PTb-ppX6-372" target="-X0jiBvBApS5PTb-ppX6-538" edge="1">
          <mxGeometry relative="1" as="geometry" />
        </mxCell>
        <mxCell id="-X0jiBvBApS5PTb-ppX6-370" style="edgeStyle=none;rounded=0;orthogonalLoop=1;jettySize=auto;html=1;entryX=1;entryY=0.5;entryDx=0;entryDy=0;exitX=0;exitY=1;exitDx=0;exitDy=0;" parent="WIyWlLk6GJQsqaUBKTNV-1" source="-X0jiBvBApS5PTb-ppX6-372" target="-X0jiBvBApS5PTb-ppX6-539" edge="1">
          <mxGeometry relative="1" as="geometry" />
        </mxCell>
        <mxCell id="-X0jiBvBApS5PTb-ppX6-371" style="edgeStyle=none;rounded=0;orthogonalLoop=1;jettySize=auto;html=1;entryX=0.5;entryY=0;entryDx=0;entryDy=0;exitX=0;exitY=1;exitDx=0;exitDy=0;" parent="WIyWlLk6GJQsqaUBKTNV-1" source="-X0jiBvBApS5PTb-ppX6-372" target="-X0jiBvBApS5PTb-ppX6-542" edge="1">
          <mxGeometry relative="1" as="geometry" />
        </mxCell>
        <mxCell id="-X0jiBvBApS5PTb-ppX6-372" value="Vacacion_Solicitud" style="rounded=1;whiteSpace=wrap;html=1;fontSize=12;glass=0;strokeWidth=1;shadow=0;" parent="WIyWlLk6GJQsqaUBKTNV-1" vertex="1">
          <mxGeometry x="1710" y="840" width="120" height="40" as="geometry" />
        </mxCell>
        <mxCell id="-X0jiBvBApS5PTb-ppX6-373" style="edgeStyle=none;rounded=0;orthogonalLoop=1;jettySize=auto;html=1;entryX=0;entryY=0.5;entryDx=0;entryDy=0;exitX=1;exitY=0;exitDx=0;exitDy=0;" parent="WIyWlLk6GJQsqaUBKTNV-1" source="-X0jiBvBApS5PTb-ppX6-380" target="-X0jiBvBApS5PTb-ppX6-545" edge="1">
          <mxGeometry relative="1" as="geometry" />
        </mxCell>
        <mxCell id="-X0jiBvBApS5PTb-ppX6-374" style="edgeStyle=none;rounded=0;orthogonalLoop=1;jettySize=auto;html=1;entryX=0;entryY=0.5;entryDx=0;entryDy=0;exitX=1;exitY=0;exitDx=0;exitDy=0;" parent="WIyWlLk6GJQsqaUBKTNV-1" source="-X0jiBvBApS5PTb-ppX6-380" target="-X0jiBvBApS5PTb-ppX6-546" edge="1">
          <mxGeometry relative="1" as="geometry" />
        </mxCell>
        <mxCell id="-X0jiBvBApS5PTb-ppX6-375" style="edgeStyle=none;rounded=0;orthogonalLoop=1;jettySize=auto;html=1;entryX=0;entryY=0.5;entryDx=0;entryDy=0;exitX=1;exitY=0;exitDx=0;exitDy=0;" parent="WIyWlLk6GJQsqaUBKTNV-1" source="-X0jiBvBApS5PTb-ppX6-380" target="-X0jiBvBApS5PTb-ppX6-547" edge="1">
          <mxGeometry relative="1" as="geometry" />
        </mxCell>
        <mxCell id="-X0jiBvBApS5PTb-ppX6-376" style="edgeStyle=none;rounded=0;orthogonalLoop=1;jettySize=auto;html=1;entryX=0;entryY=0.5;entryDx=0;entryDy=0;" parent="WIyWlLk6GJQsqaUBKTNV-1" source="-X0jiBvBApS5PTb-ppX6-380" target="-X0jiBvBApS5PTb-ppX6-548" edge="1">
          <mxGeometry relative="1" as="geometry" />
        </mxCell>
        <mxCell id="-X0jiBvBApS5PTb-ppX6-377" style="edgeStyle=none;rounded=0;orthogonalLoop=1;jettySize=auto;html=1;entryX=0;entryY=0.5;entryDx=0;entryDy=0;" parent="WIyWlLk6GJQsqaUBKTNV-1" source="-X0jiBvBApS5PTb-ppX6-380" target="-X0jiBvBApS5PTb-ppX6-549" edge="1">
          <mxGeometry relative="1" as="geometry" />
        </mxCell>
        <mxCell id="-X0jiBvBApS5PTb-ppX6-378" style="edgeStyle=none;rounded=0;orthogonalLoop=1;jettySize=auto;html=1;entryX=0;entryY=0.5;entryDx=0;entryDy=0;exitX=1;exitY=1;exitDx=0;exitDy=0;" parent="WIyWlLk6GJQsqaUBKTNV-1" source="-X0jiBvBApS5PTb-ppX6-380" target="-X0jiBvBApS5PTb-ppX6-550" edge="1">
          <mxGeometry relative="1" as="geometry" />
        </mxCell>
        <mxCell id="-X0jiBvBApS5PTb-ppX6-379" style="edgeStyle=none;rounded=0;orthogonalLoop=1;jettySize=auto;html=1;entryX=0;entryY=0.5;entryDx=0;entryDy=0;exitX=1;exitY=1;exitDx=0;exitDy=0;" parent="WIyWlLk6GJQsqaUBKTNV-1" source="-X0jiBvBApS5PTb-ppX6-380" target="-X0jiBvBApS5PTb-ppX6-551" edge="1">
          <mxGeometry relative="1" as="geometry" />
        </mxCell>
        <mxCell id="-X0jiBvBApS5PTb-ppX6-380" value="Catalogo_Permisos" style="rounded=1;whiteSpace=wrap;html=1;fontSize=12;glass=0;strokeWidth=1;shadow=0;" parent="WIyWlLk6GJQsqaUBKTNV-1" vertex="1">
          <mxGeometry x="2170" y="1148.88" width="120" height="40" as="geometry" />
        </mxCell>
        <mxCell id="-X0jiBvBApS5PTb-ppX6-381" style="edgeStyle=none;rounded=0;orthogonalLoop=1;jettySize=auto;html=1;entryX=1;entryY=0.5;entryDx=0;entryDy=0;exitX=0;exitY=1;exitDx=0;exitDy=0;" parent="WIyWlLk6GJQsqaUBKTNV-1" source="-X0jiBvBApS5PTb-ppX6-401" target="-X0jiBvBApS5PTb-ppX6-558" edge="1">
          <mxGeometry relative="1" as="geometry" />
        </mxCell>
        <mxCell id="-X0jiBvBApS5PTb-ppX6-382" style="edgeStyle=none;rounded=0;orthogonalLoop=1;jettySize=auto;html=1;entryX=1;entryY=0.5;entryDx=0;entryDy=0;exitX=0;exitY=1;exitDx=0;exitDy=0;" parent="WIyWlLk6GJQsqaUBKTNV-1" source="-X0jiBvBApS5PTb-ppX6-401" target="-X0jiBvBApS5PTb-ppX6-559" edge="1">
          <mxGeometry relative="1" as="geometry" />
        </mxCell>
        <mxCell id="-X0jiBvBApS5PTb-ppX6-383" style="edgeStyle=none;rounded=0;orthogonalLoop=1;jettySize=auto;html=1;entryX=1;entryY=0.5;entryDx=0;entryDy=0;exitX=0;exitY=1;exitDx=0;exitDy=0;" parent="WIyWlLk6GJQsqaUBKTNV-1" source="-X0jiBvBApS5PTb-ppX6-401" target="-X0jiBvBApS5PTb-ppX6-560" edge="1">
          <mxGeometry relative="1" as="geometry" />
        </mxCell>
        <mxCell id="-X0jiBvBApS5PTb-ppX6-384" style="edgeStyle=none;rounded=0;orthogonalLoop=1;jettySize=auto;html=1;entryX=1;entryY=0.5;entryDx=0;entryDy=0;" parent="WIyWlLk6GJQsqaUBKTNV-1" source="-X0jiBvBApS5PTb-ppX6-401" target="-X0jiBvBApS5PTb-ppX6-552" edge="1">
          <mxGeometry relative="1" as="geometry" />
        </mxCell>
        <mxCell id="-X0jiBvBApS5PTb-ppX6-385" style="edgeStyle=none;rounded=0;orthogonalLoop=1;jettySize=auto;html=1;entryX=0.91;entryY=0.844;entryDx=0;entryDy=0;entryPerimeter=0;exitX=0;exitY=0;exitDx=0;exitDy=0;" parent="WIyWlLk6GJQsqaUBKTNV-1" source="-X0jiBvBApS5PTb-ppX6-401" target="-X0jiBvBApS5PTb-ppX6-553" edge="1">
          <mxGeometry relative="1" as="geometry" />
        </mxCell>
        <mxCell id="-X0jiBvBApS5PTb-ppX6-386" style="edgeStyle=none;rounded=0;orthogonalLoop=1;jettySize=auto;html=1;entryX=0.5;entryY=1;entryDx=0;entryDy=0;exitX=0;exitY=0;exitDx=0;exitDy=0;" parent="WIyWlLk6GJQsqaUBKTNV-1" source="-X0jiBvBApS5PTb-ppX6-401" target="-X0jiBvBApS5PTb-ppX6-554" edge="1">
          <mxGeometry relative="1" as="geometry" />
        </mxCell>
        <mxCell id="-X0jiBvBApS5PTb-ppX6-387" style="edgeStyle=none;rounded=0;orthogonalLoop=1;jettySize=auto;html=1;entryX=0.5;entryY=1;entryDx=0;entryDy=0;exitX=1;exitY=0;exitDx=0;exitDy=0;" parent="WIyWlLk6GJQsqaUBKTNV-1" source="-X0jiBvBApS5PTb-ppX6-401" target="-X0jiBvBApS5PTb-ppX6-555" edge="1">
          <mxGeometry relative="1" as="geometry" />
        </mxCell>
        <mxCell id="-X0jiBvBApS5PTb-ppX6-388" style="edgeStyle=none;rounded=0;orthogonalLoop=1;jettySize=auto;html=1;entryX=0;entryY=1;entryDx=0;entryDy=0;exitX=1;exitY=0;exitDx=0;exitDy=0;" parent="WIyWlLk6GJQsqaUBKTNV-1" source="-X0jiBvBApS5PTb-ppX6-401" target="-X0jiBvBApS5PTb-ppX6-556" edge="1">
          <mxGeometry relative="1" as="geometry" />
        </mxCell>
        <mxCell id="-X0jiBvBApS5PTb-ppX6-389" style="edgeStyle=none;rounded=0;orthogonalLoop=1;jettySize=auto;html=1;entryX=0;entryY=0.5;entryDx=0;entryDy=0;exitX=1;exitY=0;exitDx=0;exitDy=0;" parent="WIyWlLk6GJQsqaUBKTNV-1" source="-X0jiBvBApS5PTb-ppX6-401" target="-X0jiBvBApS5PTb-ppX6-557" edge="1">
          <mxGeometry relative="1" as="geometry" />
        </mxCell>
        <mxCell id="-X0jiBvBApS5PTb-ppX6-390" style="edgeStyle=none;rounded=0;orthogonalLoop=1;jettySize=auto;html=1;entryX=1;entryY=0.5;entryDx=0;entryDy=0;exitX=0;exitY=1;exitDx=0;exitDy=0;" parent="WIyWlLk6GJQsqaUBKTNV-1" source="-X0jiBvBApS5PTb-ppX6-401" target="-X0jiBvBApS5PTb-ppX6-561" edge="1">
          <mxGeometry relative="1" as="geometry" />
        </mxCell>
        <mxCell id="-X0jiBvBApS5PTb-ppX6-391" style="edgeStyle=none;rounded=0;orthogonalLoop=1;jettySize=auto;html=1;entryX=1;entryY=0;entryDx=0;entryDy=0;exitX=0;exitY=1;exitDx=0;exitDy=0;" parent="WIyWlLk6GJQsqaUBKTNV-1" source="-X0jiBvBApS5PTb-ppX6-401" target="-X0jiBvBApS5PTb-ppX6-562" edge="1">
          <mxGeometry relative="1" as="geometry" />
        </mxCell>
        <mxCell id="-X0jiBvBApS5PTb-ppX6-392" style="edgeStyle=none;rounded=0;orthogonalLoop=1;jettySize=auto;html=1;entryX=0;entryY=0;entryDx=0;entryDy=0;exitX=0;exitY=1;exitDx=0;exitDy=0;" parent="WIyWlLk6GJQsqaUBKTNV-1" source="-X0jiBvBApS5PTb-ppX6-401" target="-X0jiBvBApS5PTb-ppX6-563" edge="1">
          <mxGeometry relative="1" as="geometry" />
        </mxCell>
        <mxCell id="-X0jiBvBApS5PTb-ppX6-393" style="edgeStyle=none;rounded=0;orthogonalLoop=1;jettySize=auto;html=1;entryX=0.5;entryY=0;entryDx=0;entryDy=0;exitX=0;exitY=1;exitDx=0;exitDy=0;" parent="WIyWlLk6GJQsqaUBKTNV-1" source="-X0jiBvBApS5PTb-ppX6-401" target="-X0jiBvBApS5PTb-ppX6-564" edge="1">
          <mxGeometry relative="1" as="geometry" />
        </mxCell>
        <mxCell id="-X0jiBvBApS5PTb-ppX6-394" style="edgeStyle=none;rounded=0;orthogonalLoop=1;jettySize=auto;html=1;entryX=0.5;entryY=0;entryDx=0;entryDy=0;exitX=1;exitY=1;exitDx=0;exitDy=0;" parent="WIyWlLk6GJQsqaUBKTNV-1" source="-X0jiBvBApS5PTb-ppX6-401" target="-X0jiBvBApS5PTb-ppX6-571" edge="1">
          <mxGeometry relative="1" as="geometry" />
        </mxCell>
        <mxCell id="-X0jiBvBApS5PTb-ppX6-395" style="edgeStyle=none;rounded=0;orthogonalLoop=1;jettySize=auto;html=1;entryX=0.5;entryY=0;entryDx=0;entryDy=0;exitX=1;exitY=1;exitDx=0;exitDy=0;" parent="WIyWlLk6GJQsqaUBKTNV-1" source="-X0jiBvBApS5PTb-ppX6-401" target="-X0jiBvBApS5PTb-ppX6-570" edge="1">
          <mxGeometry relative="1" as="geometry" />
        </mxCell>
        <mxCell id="-X0jiBvBApS5PTb-ppX6-396" style="edgeStyle=none;rounded=0;orthogonalLoop=1;jettySize=auto;html=1;entryX=0;entryY=0;entryDx=0;entryDy=0;exitX=1;exitY=1;exitDx=0;exitDy=0;" parent="WIyWlLk6GJQsqaUBKTNV-1" source="-X0jiBvBApS5PTb-ppX6-401" target="-X0jiBvBApS5PTb-ppX6-569" edge="1">
          <mxGeometry relative="1" as="geometry" />
        </mxCell>
        <mxCell id="-X0jiBvBApS5PTb-ppX6-397" style="edgeStyle=none;rounded=0;orthogonalLoop=1;jettySize=auto;html=1;entryX=0;entryY=0.5;entryDx=0;entryDy=0;exitX=1;exitY=1;exitDx=0;exitDy=0;" parent="WIyWlLk6GJQsqaUBKTNV-1" source="-X0jiBvBApS5PTb-ppX6-401" target="-X0jiBvBApS5PTb-ppX6-568" edge="1">
          <mxGeometry relative="1" as="geometry" />
        </mxCell>
        <mxCell id="-X0jiBvBApS5PTb-ppX6-398" style="edgeStyle=none;rounded=0;orthogonalLoop=1;jettySize=auto;html=1;entryX=0;entryY=0.5;entryDx=0;entryDy=0;exitX=1;exitY=1;exitDx=0;exitDy=0;" parent="WIyWlLk6GJQsqaUBKTNV-1" source="-X0jiBvBApS5PTb-ppX6-401" target="-X0jiBvBApS5PTb-ppX6-566" edge="1">
          <mxGeometry relative="1" as="geometry" />
        </mxCell>
        <mxCell id="-X0jiBvBApS5PTb-ppX6-399" style="edgeStyle=none;rounded=0;orthogonalLoop=1;jettySize=auto;html=1;entryX=0;entryY=0.5;entryDx=0;entryDy=0;exitX=1;exitY=1;exitDx=0;exitDy=0;" parent="WIyWlLk6GJQsqaUBKTNV-1" source="-X0jiBvBApS5PTb-ppX6-401" target="-X0jiBvBApS5PTb-ppX6-567" edge="1">
          <mxGeometry relative="1" as="geometry" />
        </mxCell>
        <mxCell id="-X0jiBvBApS5PTb-ppX6-400" style="edgeStyle=none;rounded=0;orthogonalLoop=1;jettySize=auto;html=1;entryX=0;entryY=0.5;entryDx=0;entryDy=0;exitX=1;exitY=1;exitDx=0;exitDy=0;" parent="WIyWlLk6GJQsqaUBKTNV-1" source="-X0jiBvBApS5PTb-ppX6-401" target="-X0jiBvBApS5PTb-ppX6-565" edge="1">
          <mxGeometry relative="1" as="geometry">
            <mxPoint x="1830" y="1190" as="sourcePoint" />
          </mxGeometry>
        </mxCell>
        <mxCell id="-X0jiBvBApS5PTb-ppX6-401" value="Permiso" style="rounded=1;whiteSpace=wrap;html=1;fontSize=12;glass=0;strokeWidth=1;shadow=0;" parent="WIyWlLk6GJQsqaUBKTNV-1" vertex="1">
          <mxGeometry x="1710" y="1148.88" width="120" height="40" as="geometry" />
        </mxCell>
        <mxCell id="-X0jiBvBApS5PTb-ppX6-402" style="edgeStyle=none;rounded=0;orthogonalLoop=1;jettySize=auto;html=1;entryX=0;entryY=0.5;entryDx=0;entryDy=0;exitX=1;exitY=0;exitDx=0;exitDy=0;" parent="WIyWlLk6GJQsqaUBKTNV-1" source="-X0jiBvBApS5PTb-ppX6-405" target="-X0jiBvBApS5PTb-ppX6-589" edge="1">
          <mxGeometry relative="1" as="geometry" />
        </mxCell>
        <mxCell id="-X0jiBvBApS5PTb-ppX6-403" style="edgeStyle=none;rounded=0;orthogonalLoop=1;jettySize=auto;html=1;entryX=0;entryY=0.5;entryDx=0;entryDy=0;" parent="WIyWlLk6GJQsqaUBKTNV-1" source="-X0jiBvBApS5PTb-ppX6-405" target="-X0jiBvBApS5PTb-ppX6-591" edge="1">
          <mxGeometry relative="1" as="geometry" />
        </mxCell>
        <mxCell id="-X0jiBvBApS5PTb-ppX6-404" style="edgeStyle=none;rounded=0;orthogonalLoop=1;jettySize=auto;html=1;entryX=0;entryY=0.5;entryDx=0;entryDy=0;exitX=1;exitY=1;exitDx=0;exitDy=0;" parent="WIyWlLk6GJQsqaUBKTNV-1" source="-X0jiBvBApS5PTb-ppX6-405" target="-X0jiBvBApS5PTb-ppX6-590" edge="1">
          <mxGeometry relative="1" as="geometry" />
        </mxCell>
        <mxCell id="-X0jiBvBApS5PTb-ppX6-405" value="Correo" style="rounded=1;whiteSpace=wrap;html=1;fontSize=12;glass=0;strokeWidth=1;shadow=0;" parent="WIyWlLk6GJQsqaUBKTNV-1" vertex="1">
          <mxGeometry x="445" y="1055" width="120" height="40" as="geometry" />
        </mxCell>
        <mxCell id="-X0jiBvBApS5PTb-ppX6-406" style="edgeStyle=none;rounded=0;orthogonalLoop=1;jettySize=auto;html=1;entryX=0.5;entryY=1;entryDx=0;entryDy=0;" parent="WIyWlLk6GJQsqaUBKTNV-1" source="-X0jiBvBApS5PTb-ppX6-410" target="-X0jiBvBApS5PTb-ppX6-586" edge="1">
          <mxGeometry relative="1" as="geometry" />
        </mxCell>
        <mxCell id="-X0jiBvBApS5PTb-ppX6-407" style="edgeStyle=none;rounded=0;orthogonalLoop=1;jettySize=auto;html=1;entryX=1;entryY=1;entryDx=0;entryDy=0;" parent="WIyWlLk6GJQsqaUBKTNV-1" source="-X0jiBvBApS5PTb-ppX6-410" target="-X0jiBvBApS5PTb-ppX6-585" edge="1">
          <mxGeometry relative="1" as="geometry" />
        </mxCell>
        <mxCell id="-X0jiBvBApS5PTb-ppX6-408" style="edgeStyle=none;rounded=0;orthogonalLoop=1;jettySize=auto;html=1;entryX=0;entryY=1;entryDx=0;entryDy=0;" parent="WIyWlLk6GJQsqaUBKTNV-1" source="-X0jiBvBApS5PTb-ppX6-410" target="-X0jiBvBApS5PTb-ppX6-587" edge="1">
          <mxGeometry relative="1" as="geometry" />
        </mxCell>
        <mxCell id="-X0jiBvBApS5PTb-ppX6-409" style="edgeStyle=none;rounded=0;orthogonalLoop=1;jettySize=auto;html=1;entryX=0;entryY=0.5;entryDx=0;entryDy=0;" parent="WIyWlLk6GJQsqaUBKTNV-1" source="-X0jiBvBApS5PTb-ppX6-410" target="-X0jiBvBApS5PTb-ppX6-588" edge="1">
          <mxGeometry relative="1" as="geometry" />
        </mxCell>
        <mxCell id="-X0jiBvBApS5PTb-ppX6-410" value="Login_Sistema" style="rounded=1;whiteSpace=wrap;html=1;fontSize=12;glass=0;strokeWidth=1;shadow=0;" parent="WIyWlLk6GJQsqaUBKTNV-1" vertex="1">
          <mxGeometry x="887" y="1210" width="120" height="40" as="geometry" />
        </mxCell>
        <mxCell id="-X0jiBvBApS5PTb-ppX6-411" style="edgeStyle=none;rounded=0;orthogonalLoop=1;jettySize=auto;html=1;entryX=1;entryY=0.5;entryDx=0;entryDy=0;exitX=0;exitY=1;exitDx=0;exitDy=0;" parent="WIyWlLk6GJQsqaUBKTNV-1" source="-X0jiBvBApS5PTb-ppX6-419" target="-X0jiBvBApS5PTb-ppX6-575" edge="1">
          <mxGeometry relative="1" as="geometry" />
        </mxCell>
        <mxCell id="-X0jiBvBApS5PTb-ppX6-412" style="edgeStyle=none;rounded=0;orthogonalLoop=1;jettySize=auto;html=1;entryX=1;entryY=0.5;entryDx=0;entryDy=0;exitX=0;exitY=1;exitDx=0;exitDy=0;" parent="WIyWlLk6GJQsqaUBKTNV-1" source="-X0jiBvBApS5PTb-ppX6-419" target="-X0jiBvBApS5PTb-ppX6-576" edge="1">
          <mxGeometry relative="1" as="geometry" />
        </mxCell>
        <mxCell id="-X0jiBvBApS5PTb-ppX6-413" style="edgeStyle=none;rounded=0;orthogonalLoop=1;jettySize=auto;html=1;entryX=1;entryY=0.5;entryDx=0;entryDy=0;exitX=0;exitY=1;exitDx=0;exitDy=0;" parent="WIyWlLk6GJQsqaUBKTNV-1" source="-X0jiBvBApS5PTb-ppX6-419" target="-X0jiBvBApS5PTb-ppX6-577" edge="1">
          <mxGeometry relative="1" as="geometry" />
        </mxCell>
        <mxCell id="-X0jiBvBApS5PTb-ppX6-414" style="edgeStyle=none;rounded=0;orthogonalLoop=1;jettySize=auto;html=1;entryX=1;entryY=0.5;entryDx=0;entryDy=0;exitX=0.5;exitY=1;exitDx=0;exitDy=0;" parent="WIyWlLk6GJQsqaUBKTNV-1" source="-X0jiBvBApS5PTb-ppX6-419" target="-X0jiBvBApS5PTb-ppX6-578" edge="1">
          <mxGeometry relative="1" as="geometry" />
        </mxCell>
        <mxCell id="-X0jiBvBApS5PTb-ppX6-415" style="edgeStyle=none;rounded=0;orthogonalLoop=1;jettySize=auto;html=1;entryX=0.5;entryY=0;entryDx=0;entryDy=0;exitX=0.5;exitY=1;exitDx=0;exitDy=0;" parent="WIyWlLk6GJQsqaUBKTNV-1" source="-X0jiBvBApS5PTb-ppX6-419" target="-X0jiBvBApS5PTb-ppX6-573" edge="1">
          <mxGeometry relative="1" as="geometry" />
        </mxCell>
        <mxCell id="-X0jiBvBApS5PTb-ppX6-416" style="edgeStyle=none;rounded=0;orthogonalLoop=1;jettySize=auto;html=1;entryX=0;entryY=0.5;entryDx=0;entryDy=0;exitX=1;exitY=1;exitDx=0;exitDy=0;" parent="WIyWlLk6GJQsqaUBKTNV-1" source="-X0jiBvBApS5PTb-ppX6-419" target="-X0jiBvBApS5PTb-ppX6-584" edge="1">
          <mxGeometry relative="1" as="geometry" />
        </mxCell>
        <mxCell id="-X0jiBvBApS5PTb-ppX6-417" style="edgeStyle=none;rounded=0;orthogonalLoop=1;jettySize=auto;html=1;entryX=0;entryY=0;entryDx=0;entryDy=0;exitX=1;exitY=1;exitDx=0;exitDy=0;" parent="WIyWlLk6GJQsqaUBKTNV-1" source="-X0jiBvBApS5PTb-ppX6-419" target="-X0jiBvBApS5PTb-ppX6-574" edge="1">
          <mxGeometry relative="1" as="geometry" />
        </mxCell>
        <mxCell id="-X0jiBvBApS5PTb-ppX6-418" style="edgeStyle=none;rounded=0;orthogonalLoop=1;jettySize=auto;html=1;entryX=0;entryY=0;entryDx=0;entryDy=0;exitX=0.5;exitY=1;exitDx=0;exitDy=0;" parent="WIyWlLk6GJQsqaUBKTNV-1" source="-X0jiBvBApS5PTb-ppX6-419" target="-X0jiBvBApS5PTb-ppX6-572" edge="1">
          <mxGeometry relative="1" as="geometry" />
        </mxCell>
        <mxCell id="-X0jiBvBApS5PTb-ppX6-419" value="Auditoria" style="rounded=1;whiteSpace=wrap;html=1;fontSize=12;glass=0;strokeWidth=1;shadow=0;" parent="WIyWlLk6GJQsqaUBKTNV-1" vertex="1">
          <mxGeometry x="887" y="880.0000000000001" width="120" height="40" as="geometry" />
        </mxCell>
        <mxCell id="-X0jiBvBApS5PTb-ppX6-420" style="edgeStyle=orthogonalEdgeStyle;rounded=0;orthogonalLoop=1;jettySize=auto;html=1;entryX=0;entryY=0.5;entryDx=0;entryDy=0;" parent="WIyWlLk6GJQsqaUBKTNV-1" source="-X0jiBvBApS5PTb-ppX6-424" target="-X0jiBvBApS5PTb-ppX6-308" edge="1">
          <mxGeometry relative="1" as="geometry" />
        </mxCell>
        <mxCell id="-X0jiBvBApS5PTb-ppX6-421" value="N" style="edgeLabel;html=1;align=center;verticalAlign=middle;resizable=0;points=[];" parent="-X0jiBvBApS5PTb-ppX6-420" vertex="1" connectable="0">
          <mxGeometry x="0.3576" y="-1" relative="1" as="geometry">
            <mxPoint as="offset" />
          </mxGeometry>
        </mxCell>
        <mxCell id="-X0jiBvBApS5PTb-ppX6-422" style="edgeStyle=orthogonalEdgeStyle;rounded=0;orthogonalLoop=1;jettySize=auto;html=1;entryX=1;entryY=0.5;entryDx=0;entryDy=0;" parent="WIyWlLk6GJQsqaUBKTNV-1" source="-X0jiBvBApS5PTb-ppX6-424" target="-X0jiBvBApS5PTb-ppX6-300" edge="1">
          <mxGeometry relative="1" as="geometry" />
        </mxCell>
        <mxCell id="-X0jiBvBApS5PTb-ppX6-423" value="1" style="edgeLabel;html=1;align=center;verticalAlign=middle;resizable=0;points=[];" parent="-X0jiBvBApS5PTb-ppX6-422" vertex="1" connectable="0">
          <mxGeometry x="0.6509" relative="1" as="geometry">
            <mxPoint x="5" as="offset" />
          </mxGeometry>
        </mxCell>
        <mxCell id="-X0jiBvBApS5PTb-ppX6-424" value="tiene" style="rhombus;whiteSpace=wrap;html=1;" parent="WIyWlLk6GJQsqaUBKTNV-1" vertex="1">
          <mxGeometry x="940" y="230" width="140" height="60" as="geometry" />
        </mxCell>
        <mxCell id="-X0jiBvBApS5PTb-ppX6-425" style="edgeStyle=orthogonalEdgeStyle;rounded=0;orthogonalLoop=1;jettySize=auto;html=1;entryX=1;entryY=0.5;entryDx=0;entryDy=0;" parent="WIyWlLk6GJQsqaUBKTNV-1" source="-X0jiBvBApS5PTb-ppX6-429" target="-X0jiBvBApS5PTb-ppX6-308" edge="1">
          <mxGeometry relative="1" as="geometry" />
        </mxCell>
        <mxCell id="-X0jiBvBApS5PTb-ppX6-426" value="N" style="edgeLabel;html=1;align=center;verticalAlign=middle;resizable=0;points=[];" parent="-X0jiBvBApS5PTb-ppX6-425" vertex="1" connectable="0">
          <mxGeometry x="0.5782" y="1" relative="1" as="geometry">
            <mxPoint as="offset" />
          </mxGeometry>
        </mxCell>
        <mxCell id="-X0jiBvBApS5PTb-ppX6-427" style="edgeStyle=orthogonalEdgeStyle;rounded=0;orthogonalLoop=1;jettySize=auto;html=1;" parent="WIyWlLk6GJQsqaUBKTNV-1" source="-X0jiBvBApS5PTb-ppX6-429" target="-X0jiBvBApS5PTb-ppX6-304" edge="1">
          <mxGeometry relative="1" as="geometry" />
        </mxCell>
        <mxCell id="-X0jiBvBApS5PTb-ppX6-428" value="1" style="edgeLabel;html=1;align=center;verticalAlign=middle;resizable=0;points=[];" parent="-X0jiBvBApS5PTb-ppX6-427" vertex="1" connectable="0">
          <mxGeometry x="0.3576" y="-1" relative="1" as="geometry">
            <mxPoint as="offset" />
          </mxGeometry>
        </mxCell>
        <mxCell id="-X0jiBvBApS5PTb-ppX6-429" value="pertenece" style="rhombus;whiteSpace=wrap;html=1;" parent="WIyWlLk6GJQsqaUBKTNV-1" vertex="1">
          <mxGeometry x="1430" y="230" width="140" height="60" as="geometry" />
        </mxCell>
        <mxCell id="-X0jiBvBApS5PTb-ppX6-430" style="edgeStyle=orthogonalEdgeStyle;rounded=0;orthogonalLoop=1;jettySize=auto;html=1;entryX=0.5;entryY=1;entryDx=0;entryDy=0;" parent="WIyWlLk6GJQsqaUBKTNV-1" source="-X0jiBvBApS5PTb-ppX6-434" target="-X0jiBvBApS5PTb-ppX6-308" edge="1">
          <mxGeometry relative="1" as="geometry" />
        </mxCell>
        <mxCell id="-X0jiBvBApS5PTb-ppX6-431" value="1" style="edgeLabel;html=1;align=center;verticalAlign=middle;resizable=0;points=[];" parent="-X0jiBvBApS5PTb-ppX6-430" vertex="1" connectable="0">
          <mxGeometry x="0.3455" y="-1" relative="1" as="geometry">
            <mxPoint as="offset" />
          </mxGeometry>
        </mxCell>
        <mxCell id="-X0jiBvBApS5PTb-ppX6-432" style="edgeStyle=orthogonalEdgeStyle;rounded=0;orthogonalLoop=1;jettySize=auto;html=1;entryX=0.5;entryY=0;entryDx=0;entryDy=0;" parent="WIyWlLk6GJQsqaUBKTNV-1" source="-X0jiBvBApS5PTb-ppX6-434" target="-X0jiBvBApS5PTb-ppX6-326" edge="1">
          <mxGeometry relative="1" as="geometry" />
        </mxCell>
        <mxCell id="-X0jiBvBApS5PTb-ppX6-433" value="N" style="edgeLabel;html=1;align=center;verticalAlign=middle;resizable=0;points=[];" parent="-X0jiBvBApS5PTb-ppX6-432" vertex="1" connectable="0">
          <mxGeometry x="0.3818" y="-1" relative="1" as="geometry">
            <mxPoint as="offset" />
          </mxGeometry>
        </mxCell>
        <mxCell id="-X0jiBvBApS5PTb-ppX6-434" value="personal" style="rhombus;whiteSpace=wrap;html=1;" parent="WIyWlLk6GJQsqaUBKTNV-1" vertex="1">
          <mxGeometry x="1180" y="340" width="140" height="60" as="geometry" />
        </mxCell>
        <mxCell id="-X0jiBvBApS5PTb-ppX6-435" style="edgeStyle=orthogonalEdgeStyle;rounded=0;orthogonalLoop=1;jettySize=auto;html=1;exitX=1;exitY=0.5;exitDx=0;exitDy=0;" parent="WIyWlLk6GJQsqaUBKTNV-1" source="-X0jiBvBApS5PTb-ppX6-439" edge="1">
          <mxGeometry relative="1" as="geometry">
            <mxPoint x="1100" y="640" as="sourcePoint" />
            <mxPoint x="1210" y="500" as="targetPoint" />
            <Array as="points">
              <mxPoint x="1210" y="712" />
            </Array>
          </mxGeometry>
        </mxCell>
        <mxCell id="-X0jiBvBApS5PTb-ppX6-436" value="1" style="edgeLabel;html=1;align=center;verticalAlign=middle;resizable=0;points=[];" parent="-X0jiBvBApS5PTb-ppX6-435" vertex="1" connectable="0">
          <mxGeometry x="0.8463" relative="1" as="geometry">
            <mxPoint as="offset" />
          </mxGeometry>
        </mxCell>
        <mxCell id="-X0jiBvBApS5PTb-ppX6-437" style="edgeStyle=orthogonalEdgeStyle;rounded=0;orthogonalLoop=1;jettySize=auto;html=1;entryX=1;entryY=0.5;entryDx=0;entryDy=0;" parent="WIyWlLk6GJQsqaUBKTNV-1" source="-X0jiBvBApS5PTb-ppX6-439" target="-X0jiBvBApS5PTb-ppX6-344" edge="1">
          <mxGeometry relative="1" as="geometry" />
        </mxCell>
        <mxCell id="-X0jiBvBApS5PTb-ppX6-438" value="1" style="edgeLabel;html=1;align=center;verticalAlign=middle;resizable=0;points=[];" parent="-X0jiBvBApS5PTb-ppX6-437" vertex="1" connectable="0">
          <mxGeometry x="0.5418" relative="1" as="geometry">
            <mxPoint as="offset" />
          </mxGeometry>
        </mxCell>
        <mxCell id="-X0jiBvBApS5PTb-ppX6-439" value="tiene" style="rhombus;whiteSpace=wrap;html=1;" parent="WIyWlLk6GJQsqaUBKTNV-1" vertex="1">
          <mxGeometry x="940" y="682.25" width="140" height="60" as="geometry" />
        </mxCell>
        <mxCell id="-X0jiBvBApS5PTb-ppX6-440" style="edgeStyle=orthogonalEdgeStyle;rounded=0;orthogonalLoop=1;jettySize=auto;html=1;entryX=1;entryY=0.5;entryDx=0;entryDy=0;" parent="WIyWlLk6GJQsqaUBKTNV-1" source="-X0jiBvBApS5PTb-ppX6-444" target="-X0jiBvBApS5PTb-ppX6-326" edge="1">
          <mxGeometry relative="1" as="geometry" />
        </mxCell>
        <mxCell id="-X0jiBvBApS5PTb-ppX6-441" value="1" style="edgeLabel;html=1;align=center;verticalAlign=middle;resizable=0;points=[];" parent="-X0jiBvBApS5PTb-ppX6-440" vertex="1" connectable="0">
          <mxGeometry x="0.5879" relative="1" as="geometry">
            <mxPoint as="offset" />
          </mxGeometry>
        </mxCell>
        <mxCell id="-X0jiBvBApS5PTb-ppX6-442" style="edgeStyle=orthogonalEdgeStyle;rounded=0;orthogonalLoop=1;jettySize=auto;html=1;" parent="WIyWlLk6GJQsqaUBKTNV-1" source="-X0jiBvBApS5PTb-ppX6-444" target="-X0jiBvBApS5PTb-ppX6-355" edge="1">
          <mxGeometry relative="1" as="geometry" />
        </mxCell>
        <mxCell id="-X0jiBvBApS5PTb-ppX6-443" value="N" style="edgeLabel;html=1;align=center;verticalAlign=middle;resizable=0;points=[];" parent="-X0jiBvBApS5PTb-ppX6-442" vertex="1" connectable="0">
          <mxGeometry x="0.6219" y="1" relative="1" as="geometry">
            <mxPoint x="-9" as="offset" />
          </mxGeometry>
        </mxCell>
        <mxCell id="-X0jiBvBApS5PTb-ppX6-444" value="realiza" style="rhombus;whiteSpace=wrap;html=1;" parent="WIyWlLk6GJQsqaUBKTNV-1" vertex="1">
          <mxGeometry x="1430" y="450" width="140" height="60" as="geometry" />
        </mxCell>
        <mxCell id="-X0jiBvBApS5PTb-ppX6-445" style="edgeStyle=orthogonalEdgeStyle;rounded=0;orthogonalLoop=1;jettySize=auto;html=1;entryX=0.75;entryY=1;entryDx=0;entryDy=0;" parent="WIyWlLk6GJQsqaUBKTNV-1" source="-X0jiBvBApS5PTb-ppX6-449" target="-X0jiBvBApS5PTb-ppX6-326" edge="1">
          <mxGeometry relative="1" as="geometry" />
        </mxCell>
        <mxCell id="-X0jiBvBApS5PTb-ppX6-446" value="1" style="edgeLabel;html=1;align=center;verticalAlign=middle;resizable=0;points=[];" parent="-X0jiBvBApS5PTb-ppX6-445" vertex="1" connectable="0">
          <mxGeometry x="0.8536" relative="1" as="geometry">
            <mxPoint as="offset" />
          </mxGeometry>
        </mxCell>
        <mxCell id="-X0jiBvBApS5PTb-ppX6-447" style="edgeStyle=orthogonalEdgeStyle;rounded=0;orthogonalLoop=1;jettySize=auto;html=1;entryX=0;entryY=0.5;entryDx=0;entryDy=0;" parent="WIyWlLk6GJQsqaUBKTNV-1" source="-X0jiBvBApS5PTb-ppX6-449" target="-X0jiBvBApS5PTb-ppX6-372" edge="1">
          <mxGeometry relative="1" as="geometry" />
        </mxCell>
        <mxCell id="-X0jiBvBApS5PTb-ppX6-448" value="N" style="edgeLabel;html=1;align=center;verticalAlign=middle;resizable=0;points=[];" parent="-X0jiBvBApS5PTb-ppX6-447" vertex="1" connectable="0">
          <mxGeometry x="0.6459" y="1" relative="1" as="geometry">
            <mxPoint as="offset" />
          </mxGeometry>
        </mxCell>
        <mxCell id="-X0jiBvBApS5PTb-ppX6-449" value="realiza" style="rhombus;whiteSpace=wrap;html=1;" parent="WIyWlLk6GJQsqaUBKTNV-1" vertex="1">
          <mxGeometry x="1430" y="830" width="140" height="60" as="geometry" />
        </mxCell>
        <mxCell id="-X0jiBvBApS5PTb-ppX6-455" style="edgeStyle=orthogonalEdgeStyle;rounded=0;orthogonalLoop=1;jettySize=auto;html=1;entryX=0.5;entryY=1;entryDx=0;entryDy=0;" parent="WIyWlLk6GJQsqaUBKTNV-1" source="-X0jiBvBApS5PTb-ppX6-459" target="-X0jiBvBApS5PTb-ppX6-401" edge="1">
          <mxGeometry relative="1" as="geometry" />
        </mxCell>
        <mxCell id="-X0jiBvBApS5PTb-ppX6-456" value="1" style="edgeLabel;html=1;align=center;verticalAlign=middle;resizable=0;points=[];" parent="-X0jiBvBApS5PTb-ppX6-455" vertex="1" connectable="0">
          <mxGeometry x="0.7361" relative="1" as="geometry">
            <mxPoint as="offset" />
          </mxGeometry>
        </mxCell>
        <mxCell id="-X0jiBvBApS5PTb-ppX6-457" style="edgeStyle=orthogonalEdgeStyle;rounded=0;orthogonalLoop=1;jettySize=auto;html=1;entryX=0.5;entryY=0;entryDx=0;entryDy=0;" parent="WIyWlLk6GJQsqaUBKTNV-1" source="-X0jiBvBApS5PTb-ppX6-459" target="-X0jiBvBApS5PTb-ppX6-332" edge="1">
          <mxGeometry relative="1" as="geometry" />
        </mxCell>
        <mxCell id="-X0jiBvBApS5PTb-ppX6-458" value="1" style="edgeLabel;html=1;align=center;verticalAlign=middle;resizable=0;points=[];" parent="-X0jiBvBApS5PTb-ppX6-457" vertex="1" connectable="0">
          <mxGeometry x="0.7493" relative="1" as="geometry">
            <mxPoint y="-15" as="offset" />
          </mxGeometry>
        </mxCell>
        <mxCell id="-X0jiBvBApS5PTb-ppX6-459" value="genera" style="rhombus;whiteSpace=wrap;html=1;" parent="WIyWlLk6GJQsqaUBKTNV-1" vertex="1">
          <mxGeometry x="1700" y="1368.88" width="140" height="60" as="geometry" />
        </mxCell>
        <mxCell id="-X0jiBvBApS5PTb-ppX6-460" style="edgeStyle=orthogonalEdgeStyle;rounded=0;orthogonalLoop=1;jettySize=auto;html=1;entryX=0.5;entryY=1;entryDx=0;entryDy=0;" parent="WIyWlLk6GJQsqaUBKTNV-1" source="-X0jiBvBApS5PTb-ppX6-464" target="-X0jiBvBApS5PTb-ppX6-326" edge="1">
          <mxGeometry relative="1" as="geometry" />
        </mxCell>
        <mxCell id="-X0jiBvBApS5PTb-ppX6-461" value="1" style="edgeLabel;html=1;align=center;verticalAlign=middle;resizable=0;points=[];" parent="-X0jiBvBApS5PTb-ppX6-460" vertex="1" connectable="0">
          <mxGeometry x="0.9441" y="-1" relative="1" as="geometry">
            <mxPoint as="offset" />
          </mxGeometry>
        </mxCell>
        <mxCell id="-X0jiBvBApS5PTb-ppX6-462" style="edgeStyle=orthogonalEdgeStyle;rounded=0;orthogonalLoop=1;jettySize=auto;html=1;" parent="WIyWlLk6GJQsqaUBKTNV-1" source="-X0jiBvBApS5PTb-ppX6-464" target="-X0jiBvBApS5PTb-ppX6-401" edge="1">
          <mxGeometry relative="1" as="geometry" />
        </mxCell>
        <mxCell id="-X0jiBvBApS5PTb-ppX6-463" value="N" style="edgeLabel;html=1;align=center;verticalAlign=middle;resizable=0;points=[];" parent="-X0jiBvBApS5PTb-ppX6-462" vertex="1" connectable="0">
          <mxGeometry x="0.691" relative="1" as="geometry">
            <mxPoint as="offset" />
          </mxGeometry>
        </mxCell>
        <mxCell id="-X0jiBvBApS5PTb-ppX6-464" value="realiza" style="rhombus;whiteSpace=wrap;html=1;" parent="WIyWlLk6GJQsqaUBKTNV-1" vertex="1">
          <mxGeometry x="1430" y="1138.88" width="140" height="60" as="geometry" />
        </mxCell>
        <mxCell id="-X0jiBvBApS5PTb-ppX6-465" style="edgeStyle=orthogonalEdgeStyle;rounded=0;orthogonalLoop=1;jettySize=auto;html=1;entryX=0.5;entryY=1;entryDx=0;entryDy=0;" parent="WIyWlLk6GJQsqaUBKTNV-1" source="-X0jiBvBApS5PTb-ppX6-469" target="-X0jiBvBApS5PTb-ppX6-372" edge="1">
          <mxGeometry relative="1" as="geometry" />
        </mxCell>
        <mxCell id="-X0jiBvBApS5PTb-ppX6-466" value="1" style="edgeLabel;html=1;align=center;verticalAlign=middle;resizable=0;points=[];" parent="-X0jiBvBApS5PTb-ppX6-465" vertex="1" connectable="0">
          <mxGeometry x="0.7454" y="2" relative="1" as="geometry">
            <mxPoint x="2" y="4" as="offset" />
          </mxGeometry>
        </mxCell>
        <mxCell id="-X0jiBvBApS5PTb-ppX6-467" style="edgeStyle=orthogonalEdgeStyle;rounded=0;orthogonalLoop=1;jettySize=auto;html=1;entryX=0.5;entryY=0;entryDx=0;entryDy=0;" parent="WIyWlLk6GJQsqaUBKTNV-1" source="-X0jiBvBApS5PTb-ppX6-469" target="-X0jiBvBApS5PTb-ppX6-401" edge="1">
          <mxGeometry relative="1" as="geometry" />
        </mxCell>
        <mxCell id="-X0jiBvBApS5PTb-ppX6-468" value="1" style="edgeLabel;html=1;align=center;verticalAlign=middle;resizable=0;points=[];" parent="-X0jiBvBApS5PTb-ppX6-467" vertex="1" connectable="0">
          <mxGeometry x="0.6791" relative="1" as="geometry">
            <mxPoint y="-8" as="offset" />
          </mxGeometry>
        </mxCell>
        <mxCell id="-X0jiBvBApS5PTb-ppX6-469" value="genera" style="rhombus;whiteSpace=wrap;html=1;" parent="WIyWlLk6GJQsqaUBKTNV-1" vertex="1">
          <mxGeometry x="1700" y="1010" width="140" height="60" as="geometry" />
        </mxCell>
        <mxCell id="-X0jiBvBApS5PTb-ppX6-470" style="edgeStyle=orthogonalEdgeStyle;rounded=0;orthogonalLoop=1;jettySize=auto;html=1;" parent="WIyWlLk6GJQsqaUBKTNV-1" source="-X0jiBvBApS5PTb-ppX6-474" target="-X0jiBvBApS5PTb-ppX6-401" edge="1">
          <mxGeometry relative="1" as="geometry" />
        </mxCell>
        <mxCell id="-X0jiBvBApS5PTb-ppX6-471" value="N" style="edgeLabel;html=1;align=center;verticalAlign=middle;resizable=0;points=[];" parent="-X0jiBvBApS5PTb-ppX6-470" vertex="1" connectable="0">
          <mxGeometry x="0.6474" relative="1" as="geometry">
            <mxPoint as="offset" />
          </mxGeometry>
        </mxCell>
        <mxCell id="-X0jiBvBApS5PTb-ppX6-472" style="edgeStyle=orthogonalEdgeStyle;rounded=0;orthogonalLoop=1;jettySize=auto;html=1;entryX=0;entryY=0.5;entryDx=0;entryDy=0;" parent="WIyWlLk6GJQsqaUBKTNV-1" source="-X0jiBvBApS5PTb-ppX6-474" target="-X0jiBvBApS5PTb-ppX6-380" edge="1">
          <mxGeometry relative="1" as="geometry" />
        </mxCell>
        <mxCell id="-X0jiBvBApS5PTb-ppX6-473" value="1" style="edgeLabel;html=1;align=center;verticalAlign=middle;resizable=0;points=[];" parent="-X0jiBvBApS5PTb-ppX6-472" vertex="1" connectable="0">
          <mxGeometry x="0.7211" relative="1" as="geometry">
            <mxPoint x="-16" as="offset" />
          </mxGeometry>
        </mxCell>
        <mxCell id="-X0jiBvBApS5PTb-ppX6-474" value="tiene" style="rhombus;whiteSpace=wrap;html=1;" parent="WIyWlLk6GJQsqaUBKTNV-1" vertex="1">
          <mxGeometry x="1970" y="1138.88" width="140" height="60" as="geometry" />
        </mxCell>
        <mxCell id="-X0jiBvBApS5PTb-ppX6-480" value="&lt;u&gt;em_id&lt;/u&gt;" style="ellipse;whiteSpace=wrap;html=1;" parent="WIyWlLk6GJQsqaUBKTNV-1" vertex="1">
          <mxGeometry x="607" y="185" width="120" height="30" as="geometry" />
        </mxCell>
        <mxCell id="-X0jiBvBApS5PTb-ppX6-481" value="em_nombre" style="ellipse;whiteSpace=wrap;html=1;" parent="WIyWlLk6GJQsqaUBKTNV-1" vertex="1">
          <mxGeometry x="607" y="225" width="120" height="30" as="geometry" />
        </mxCell>
        <mxCell id="-X0jiBvBApS5PTb-ppX6-482" value="em_direccion" style="ellipse;whiteSpace=wrap;html=1;" parent="WIyWlLk6GJQsqaUBKTNV-1" vertex="1">
          <mxGeometry x="607" y="265" width="120" height="30" as="geometry" />
        </mxCell>
        <mxCell id="-X0jiBvBApS5PTb-ppX6-483" value="em_telefono" style="ellipse;whiteSpace=wrap;html=1;" parent="WIyWlLk6GJQsqaUBKTNV-1" vertex="1">
          <mxGeometry x="607" y="305" width="120" height="30" as="geometry" />
        </mxCell>
        <mxCell id="-X0jiBvBApS5PTb-ppX6-484" value="&lt;u&gt;dep_id&lt;/u&gt;" style="ellipse;whiteSpace=wrap;html=1;" parent="WIyWlLk6GJQsqaUBKTNV-1" vertex="1">
          <mxGeometry x="1782.5" y="200" width="120" height="30" as="geometry" />
        </mxCell>
        <mxCell id="-X0jiBvBApS5PTb-ppX6-485" value="dep_nombre" style="ellipse;whiteSpace=wrap;html=1;" parent="WIyWlLk6GJQsqaUBKTNV-1" vertex="1">
          <mxGeometry x="1782.5" y="240" width="120" height="30" as="geometry" />
        </mxCell>
        <mxCell id="-X0jiBvBApS5PTb-ppX6-486" value="dep_fecha_max_planificacion" style="ellipse;whiteSpace=wrap;html=1;" parent="WIyWlLk6GJQsqaUBKTNV-1" vertex="1">
          <mxGeometry x="1772.5" y="280" width="180" height="30" as="geometry" />
        </mxCell>
        <mxCell id="-X0jiBvBApS5PTb-ppX6-487" value="dep_id" style="ellipse;whiteSpace=wrap;html=1;" parent="WIyWlLk6GJQsqaUBKTNV-1" vertex="1">
          <mxGeometry x="1300" y="190" width="120" height="30" as="geometry" />
        </mxCell>
        <mxCell id="-X0jiBvBApS5PTb-ppX6-488" value="em_id" style="ellipse;whiteSpace=wrap;html=1;" parent="WIyWlLk6GJQsqaUBKTNV-1" vertex="1">
          <mxGeometry x="1090" y="190" width="120" height="30" as="geometry" />
        </mxCell>
        <mxCell id="-X0jiBvBApS5PTb-ppX6-489" value="&lt;u&gt;em_dep_id&lt;/u&gt;" style="ellipse;whiteSpace=wrap;html=1;" parent="WIyWlLk6GJQsqaUBKTNV-1" vertex="1">
          <mxGeometry x="1190" y="160" width="120" height="30" as="geometry" />
        </mxCell>
        <mxCell id="-X0jiBvBApS5PTb-ppX6-490" value="&lt;u&gt;pers_cedula&lt;/u&gt;" style="ellipse;whiteSpace=wrap;html=1;" parent="WIyWlLk6GJQsqaUBKTNV-1" vertex="1">
          <mxGeometry x="1055" y="330" width="120" height="30" as="geometry" />
        </mxCell>
        <mxCell id="-X0jiBvBApS5PTb-ppX6-491" value="em_dep_id" style="ellipse;whiteSpace=wrap;html=1;" parent="WIyWlLk6GJQsqaUBKTNV-1" vertex="1">
          <mxGeometry x="930" y="300" width="120" height="30" as="geometry" />
        </mxCell>
        <mxCell id="-X0jiBvBApS5PTb-ppX6-492" value="pers_cedula_jefe" style="ellipse;whiteSpace=wrap;html=1;" parent="WIyWlLk6GJQsqaUBKTNV-1" vertex="1">
          <mxGeometry x="820" y="330" width="120" height="30" as="geometry" />
        </mxCell>
        <mxCell id="-X0jiBvBApS5PTb-ppX6-493" value="pers_cargo" style="ellipse;whiteSpace=wrap;html=1;" parent="WIyWlLk6GJQsqaUBKTNV-1" vertex="1">
          <mxGeometry x="800" y="410" width="120" height="30" as="geometry" />
        </mxCell>
        <mxCell id="-X0jiBvBApS5PTb-ppX6-494" value="pers_direccion" style="ellipse;whiteSpace=wrap;html=1;" parent="WIyWlLk6GJQsqaUBKTNV-1" vertex="1">
          <mxGeometry x="800" y="450" width="120" height="30" as="geometry" />
        </mxCell>
        <mxCell id="-X0jiBvBApS5PTb-ppX6-495" value="pers_correo" style="ellipse;whiteSpace=wrap;html=1;" parent="WIyWlLk6GJQsqaUBKTNV-1" vertex="1">
          <mxGeometry x="800" y="490" width="120" height="30" as="geometry" />
        </mxCell>
        <mxCell id="-X0jiBvBApS5PTb-ppX6-496" value="pers_direccion_padres" style="ellipse;whiteSpace=wrap;html=1;" parent="WIyWlLk6GJQsqaUBKTNV-1" vertex="1">
          <mxGeometry x="770" y="530" width="150" height="30" as="geometry" />
        </mxCell>
        <mxCell id="-X0jiBvBApS5PTb-ppX6-497" value="pers_numero_referencia_familiar" style="ellipse;whiteSpace=wrap;html=1;" parent="WIyWlLk6GJQsqaUBKTNV-1" vertex="1">
          <mxGeometry x="710" y="570" width="210" height="30" as="geometry" />
        </mxCell>
        <mxCell id="-X0jiBvBApS5PTb-ppX6-498" value="pers_numero_celular" style="ellipse;whiteSpace=wrap;html=1;" parent="WIyWlLk6GJQsqaUBKTNV-1" vertex="1">
          <mxGeometry x="790" y="610" width="140" height="30" as="geometry" />
        </mxCell>
        <mxCell id="-X0jiBvBApS5PTb-ppX6-499" value="pers_backup_principal" style="ellipse;whiteSpace=wrap;html=1;" parent="WIyWlLk6GJQsqaUBKTNV-1" vertex="1">
          <mxGeometry x="905" y="640" width="150" height="30" as="geometry" />
        </mxCell>
        <mxCell id="-X0jiBvBApS5PTb-ppX6-500" value="pers_nombre" style="ellipse;whiteSpace=wrap;html=1;" parent="WIyWlLk6GJQsqaUBKTNV-1" vertex="1">
          <mxGeometry x="800" y="370" width="120" height="30" as="geometry" />
        </mxCell>
        <mxCell id="-X0jiBvBApS5PTb-ppX6-501" value="pers_backup_secundario" style="ellipse;whiteSpace=wrap;html=1;" parent="WIyWlLk6GJQsqaUBKTNV-1" vertex="1">
          <mxGeometry x="1030" y="610" width="170" height="30" as="geometry" />
        </mxCell>
        <mxCell id="-X0jiBvBApS5PTb-ppX6-502" value="pers_fecha_inicio_contrato" style="ellipse;whiteSpace=wrap;html=1;" parent="WIyWlLk6GJQsqaUBKTNV-1" vertex="1">
          <mxGeometry x="1330" y="330" width="170" height="30" as="geometry" />
        </mxCell>
        <mxCell id="-X0jiBvBApS5PTb-ppX6-503" value="pers_fecha_fin_contrato" style="ellipse;whiteSpace=wrap;html=1;" parent="WIyWlLk6GJQsqaUBKTNV-1" vertex="1">
          <mxGeometry x="1410" y="380" width="160" height="30" as="geometry" />
        </mxCell>
        <mxCell id="-X0jiBvBApS5PTb-ppX6-504" value="pers_fecha_habilitacion_vacaciones" style="ellipse;whiteSpace=wrap;html=1;" parent="WIyWlLk6GJQsqaUBKTNV-1" vertex="1">
          <mxGeometry x="1305" y="625" width="220" height="30" as="geometry" />
        </mxCell>
        <mxCell id="-X0jiBvBApS5PTb-ppX6-505" value="pers_total_dias_vacaciones" style="ellipse;whiteSpace=wrap;html=1;" parent="WIyWlLk6GJQsqaUBKTNV-1" vertex="1">
          <mxGeometry x="1420" y="580" width="190" height="30" as="geometry" />
        </mxCell>
        <mxCell id="-X0jiBvBApS5PTb-ppX6-506" value="pers_total_dias_trabajados" style="ellipse;whiteSpace=wrap;html=1;" parent="WIyWlLk6GJQsqaUBKTNV-1" vertex="1">
          <mxGeometry x="1410" y="540" width="180" height="30" as="geometry" />
        </mxCell>
        <mxCell id="-X0jiBvBApS5PTb-ppX6-507" style="edgeStyle=none;rounded=0;orthogonalLoop=1;jettySize=auto;html=1;exitX=0.5;exitY=1;exitDx=0;exitDy=0;" parent="WIyWlLk6GJQsqaUBKTNV-1" source="-X0jiBvBApS5PTb-ppX6-499" target="-X0jiBvBApS5PTb-ppX6-499" edge="1">
          <mxGeometry relative="1" as="geometry" />
        </mxCell>
        <mxCell id="-X0jiBvBApS5PTb-ppX6-508" value="&lt;u&gt;pla_vac_id&lt;/u&gt;" style="ellipse;whiteSpace=wrap;html=1;" parent="WIyWlLk6GJQsqaUBKTNV-1" vertex="1">
          <mxGeometry x="1793.5" y="350" width="120" height="30" as="geometry" />
        </mxCell>
        <mxCell id="-X0jiBvBApS5PTb-ppX6-509" value="pla_vac_fecha_creacion" style="ellipse;whiteSpace=wrap;html=1;" parent="WIyWlLk6GJQsqaUBKTNV-1" vertex="1">
          <mxGeometry x="2042.5" y="410" width="150" height="30" as="geometry" />
        </mxCell>
        <mxCell id="-X0jiBvBApS5PTb-ppX6-510" value="pla_vac_usuario_creacion" style="ellipse;whiteSpace=wrap;html=1;" parent="WIyWlLk6GJQsqaUBKTNV-1" vertex="1">
          <mxGeometry x="2042.5" y="450" width="160" height="30" as="geometry" />
        </mxCell>
        <mxCell id="-X0jiBvBApS5PTb-ppX6-511" value="pers_cedula" style="ellipse;whiteSpace=wrap;html=1;" parent="WIyWlLk6GJQsqaUBKTNV-1" vertex="1">
          <mxGeometry x="540" y="530" width="120" height="30" as="geometry" />
        </mxCell>
        <mxCell id="-X0jiBvBApS5PTb-ppX6-512" value="sal_vac_remuneracion" style="ellipse;whiteSpace=wrap;html=1;" parent="WIyWlLk6GJQsqaUBKTNV-1" vertex="1">
          <mxGeometry x="510" y="570" width="140" height="30" as="geometry" />
        </mxCell>
        <mxCell id="-X0jiBvBApS5PTb-ppX6-513" value="sal_vac_dias_disponibles" style="ellipse;whiteSpace=wrap;html=1;" parent="WIyWlLk6GJQsqaUBKTNV-1" vertex="1">
          <mxGeometry x="480" y="610" width="160" height="30" as="geometry" />
        </mxCell>
        <mxCell id="-X0jiBvBApS5PTb-ppX6-514" value="sal_vac_horas_disponibles" style="ellipse;whiteSpace=wrap;html=1;" parent="WIyWlLk6GJQsqaUBKTNV-1" vertex="1">
          <mxGeometry x="470" y="647.25" width="170" height="30" as="geometry" />
        </mxCell>
        <mxCell id="-X0jiBvBApS5PTb-ppX6-515" value="&lt;u&gt;sal_vac_id&lt;/u&gt;" style="ellipse;whiteSpace=wrap;html=1;" parent="WIyWlLk6GJQsqaUBKTNV-1" vertex="1">
          <mxGeometry x="560" y="490" width="120" height="30" as="geometry" />
        </mxCell>
        <mxCell id="-X0jiBvBApS5PTb-ppX6-516" value="sal_vac_dias_tomados" style="ellipse;whiteSpace=wrap;html=1;" parent="WIyWlLk6GJQsqaUBKTNV-1" vertex="1">
          <mxGeometry x="490" y="687.25" width="150" height="30" as="geometry" />
        </mxCell>
        <mxCell id="-X0jiBvBApS5PTb-ppX6-517" value="sal_vac_horas_tomadas" style="ellipse;whiteSpace=wrap;html=1;" parent="WIyWlLk6GJQsqaUBKTNV-1" vertex="1">
          <mxGeometry x="490" y="726.13" width="150" height="30" as="geometry" />
        </mxCell>
        <mxCell id="-X0jiBvBApS5PTb-ppX6-518" value="sal_vac_dias_anio_actual" style="ellipse;whiteSpace=wrap;html=1;" parent="WIyWlLk6GJQsqaUBKTNV-1" vertex="1">
          <mxGeometry x="485" y="767.25" width="160" height="30" as="geometry" />
        </mxCell>
        <mxCell id="-X0jiBvBApS5PTb-ppX6-519" value="sal_vac_dias_dos_anios" style="ellipse;whiteSpace=wrap;html=1;" parent="WIyWlLk6GJQsqaUBKTNV-1" vertex="1">
          <mxGeometry x="495" y="810" width="150" height="30" as="geometry" />
        </mxCell>
        <mxCell id="-X0jiBvBApS5PTb-ppX6-520" value="sal_vac_dos_anios" style="ellipse;whiteSpace=wrap;html=1;" parent="WIyWlLk6GJQsqaUBKTNV-1" vertex="1">
          <mxGeometry x="660" y="810" width="130" height="30" as="geometry" />
        </mxCell>
        <mxCell id="-X0jiBvBApS5PTb-ppX6-521" value="sal_vac_periodo" style="ellipse;whiteSpace=wrap;html=1;" parent="WIyWlLk6GJQsqaUBKTNV-1" vertex="1">
          <mxGeometry x="755" y="780" width="120" height="30" as="geometry" />
        </mxCell>
        <mxCell id="-X0jiBvBApS5PTb-ppX6-522" value="pers_cedula" style="ellipse;whiteSpace=wrap;html=1;" parent="WIyWlLk6GJQsqaUBKTNV-1" vertex="1">
          <mxGeometry x="1922.5" y="350" width="120" height="30" as="geometry" />
        </mxCell>
        <mxCell id="-X0jiBvBApS5PTb-ppX6-523" value="pla_vac_numero_oficio" style="ellipse;whiteSpace=wrap;html=1;" parent="WIyWlLk6GJQsqaUBKTNV-1" vertex="1">
          <mxGeometry x="2042.5" y="370" width="150" height="30" as="geometry" />
        </mxCell>
        <mxCell id="-X0jiBvBApS5PTb-ppX6-524" value="pla_vac_usuario_beneficiario" style="ellipse;whiteSpace=wrap;html=1;" parent="WIyWlLk6GJQsqaUBKTNV-1" vertex="1">
          <mxGeometry x="2042.5" y="490" width="180" height="30" as="geometry" />
        </mxCell>
        <mxCell id="-X0jiBvBApS5PTb-ppX6-525" value="pla_vac_fecha_desde" style="ellipse;whiteSpace=wrap;html=1;" parent="WIyWlLk6GJQsqaUBKTNV-1" vertex="1">
          <mxGeometry x="2042.5" y="530" width="140" height="30" as="geometry" />
        </mxCell>
        <mxCell id="-X0jiBvBApS5PTb-ppX6-526" value="pla_vac_dias_tomados" style="ellipse;whiteSpace=wrap;html=1;" parent="WIyWlLk6GJQsqaUBKTNV-1" vertex="1">
          <mxGeometry x="2042.5" y="570" width="140" height="30" as="geometry" />
        </mxCell>
        <mxCell id="-X0jiBvBApS5PTb-ppX6-527" value="pla_vac_fecha_hasta" style="ellipse;whiteSpace=wrap;html=1;" parent="WIyWlLk6GJQsqaUBKTNV-1" vertex="1">
          <mxGeometry x="1942.5" y="600" width="130" height="30" as="geometry" />
        </mxCell>
        <mxCell id="-X0jiBvBApS5PTb-ppX6-528" value="pla_vac_estado_planificacion" style="ellipse;whiteSpace=wrap;html=1;" parent="WIyWlLk6GJQsqaUBKTNV-1" vertex="1">
          <mxGeometry x="1752.5" y="570" width="180" height="30" as="geometry" />
        </mxCell>
        <mxCell id="-X0jiBvBApS5PTb-ppX6-529" value="&lt;u&gt;vac_sol_id&lt;/u&gt;" style="ellipse;whiteSpace=wrap;html=1;" parent="WIyWlLk6GJQsqaUBKTNV-1" vertex="1">
          <mxGeometry x="1525" y="800" width="120" height="30" as="geometry" />
        </mxCell>
        <mxCell id="-X0jiBvBApS5PTb-ppX6-530" value="pers_cedula" style="ellipse;whiteSpace=wrap;html=1;" parent="WIyWlLk6GJQsqaUBKTNV-1" vertex="1">
          <mxGeometry x="1550" y="756.13" width="120" height="30" as="geometry" />
        </mxCell>
        <mxCell id="-X0jiBvBApS5PTb-ppX6-531" value="vac_sol_numero_oficio" style="ellipse;whiteSpace=wrap;html=1;" parent="WIyWlLk6GJQsqaUBKTNV-1" vertex="1">
          <mxGeometry x="1570" y="717.25" width="140" height="30" as="geometry" />
        </mxCell>
        <mxCell id="-X0jiBvBApS5PTb-ppX6-532" value="vac_sol_fecha_creacion" style="ellipse;whiteSpace=wrap;html=1;" parent="WIyWlLk6GJQsqaUBKTNV-1" vertex="1">
          <mxGeometry x="1600" y="677.25" width="150" height="30" as="geometry" />
        </mxCell>
        <mxCell id="-X0jiBvBApS5PTb-ppX6-533" value="vac_sol_usuario_creacion" style="ellipse;whiteSpace=wrap;html=1;" parent="WIyWlLk6GJQsqaUBKTNV-1" vertex="1">
          <mxGeometry x="1690" y="637.25" width="160" height="30" as="geometry" />
        </mxCell>
        <mxCell id="-X0jiBvBApS5PTb-ppX6-534" value="vac_sol_usuario_beneficiario" style="ellipse;whiteSpace=wrap;html=1;" parent="WIyWlLk6GJQsqaUBKTNV-1" vertex="1">
          <mxGeometry x="1790" y="677.25" width="180" height="30" as="geometry" />
        </mxCell>
        <mxCell id="-X0jiBvBApS5PTb-ppX6-535" value="vac_sol_fecha_desde" style="ellipse;whiteSpace=wrap;html=1;" parent="WIyWlLk6GJQsqaUBKTNV-1" vertex="1">
          <mxGeometry x="1830" y="717.25" width="140" height="30" as="geometry" />
        </mxCell>
        <mxCell id="-X0jiBvBApS5PTb-ppX6-536" value="vac_sol_dias_tomados" style="ellipse;whiteSpace=wrap;html=1;" parent="WIyWlLk6GJQsqaUBKTNV-1" vertex="1">
          <mxGeometry x="1861" y="756.13" width="149" height="30" as="geometry" />
        </mxCell>
        <mxCell id="-X0jiBvBApS5PTb-ppX6-537" value="vac_sol_fecha_hasta" style="ellipse;whiteSpace=wrap;html=1;" parent="WIyWlLk6GJQsqaUBKTNV-1" vertex="1">
          <mxGeometry x="1900" y="797.25" width="130" height="30" as="geometry" />
        </mxCell>
        <mxCell id="-X0jiBvBApS5PTb-ppX6-538" value="vac_sol_fecha_aprobacion" style="ellipse;whiteSpace=wrap;html=1;" parent="WIyWlLk6GJQsqaUBKTNV-1" vertex="1">
          <mxGeometry x="1480" y="890" width="165" height="30" as="geometry" />
        </mxCell>
        <mxCell id="-X0jiBvBApS5PTb-ppX6-539" value="vac_sol_firma_empleado" style="ellipse;whiteSpace=wrap;html=1;" parent="WIyWlLk6GJQsqaUBKTNV-1" vertex="1">
          <mxGeometry x="1510" y="935" width="150" height="30" as="geometry" />
        </mxCell>
        <mxCell id="-X0jiBvBApS5PTb-ppX6-540" value="vac_sol_estado" style="ellipse;whiteSpace=wrap;html=1;" parent="WIyWlLk6GJQsqaUBKTNV-1" vertex="1">
          <mxGeometry x="1780" y="967.25" width="120" height="30" as="geometry" />
        </mxCell>
        <mxCell id="-X0jiBvBApS5PTb-ppX6-541" value="vac_sol_cedula_autoriza" style="ellipse;whiteSpace=wrap;html=1;" parent="WIyWlLk6GJQsqaUBKTNV-1" vertex="1">
          <mxGeometry x="1930" y="897.25" width="160" height="30" as="geometry" />
        </mxCell>
        <mxCell id="-X0jiBvBApS5PTb-ppX6-542" value="vac_sol_firma_jefe" style="ellipse;whiteSpace=wrap;html=1;" parent="WIyWlLk6GJQsqaUBKTNV-1" vertex="1">
          <mxGeometry x="1640" y="967.25" width="120" height="30" as="geometry" />
        </mxCell>
        <mxCell id="-X0jiBvBApS5PTb-ppX6-543" value="vac_sol_nombre_autoriza" style="ellipse;whiteSpace=wrap;html=1;" parent="WIyWlLk6GJQsqaUBKTNV-1" vertex="1">
          <mxGeometry x="1930" y="937.25" width="160" height="30" as="geometry" />
        </mxCell>
        <mxCell id="-X0jiBvBApS5PTb-ppX6-544" value="vac_sol_motivo_rechazo" style="ellipse;whiteSpace=wrap;html=1;" parent="WIyWlLk6GJQsqaUBKTNV-1" vertex="1">
          <mxGeometry x="1910" y="980" width="150" height="30" as="geometry" />
        </mxCell>
        <mxCell id="-X0jiBvBApS5PTb-ppX6-545" value="&lt;u&gt;cat_per_id&lt;/u&gt;" style="ellipse;whiteSpace=wrap;html=1;" parent="WIyWlLk6GJQsqaUBKTNV-1" vertex="1">
          <mxGeometry x="2320" y="1020" width="120" height="30" as="geometry" />
        </mxCell>
        <mxCell id="-X0jiBvBApS5PTb-ppX6-546" value="cat_per_tipo" style="ellipse;whiteSpace=wrap;html=1;" parent="WIyWlLk6GJQsqaUBKTNV-1" vertex="1">
          <mxGeometry x="2320" y="1060" width="120" height="30" as="geometry" />
        </mxCell>
        <mxCell id="-X0jiBvBApS5PTb-ppX6-547" value="cat_per_descripcion" style="ellipse;whiteSpace=wrap;html=1;" parent="WIyWlLk6GJQsqaUBKTNV-1" vertex="1">
          <mxGeometry x="2320" y="1100" width="120" height="30" as="geometry" />
        </mxCell>
        <mxCell id="-X0jiBvBApS5PTb-ppX6-548" value="cat_per_periodo" style="ellipse;whiteSpace=wrap;html=1;" parent="WIyWlLk6GJQsqaUBKTNV-1" vertex="1">
          <mxGeometry x="2320" y="1138.88" width="120" height="30" as="geometry" />
        </mxCell>
        <mxCell id="-X0jiBvBApS5PTb-ppX6-549" value="cat_per_numero_dias" style="ellipse;whiteSpace=wrap;html=1;" parent="WIyWlLk6GJQsqaUBKTNV-1" vertex="1">
          <mxGeometry x="2320" y="1179" width="130" height="30" as="geometry" />
        </mxCell>
        <mxCell id="-X0jiBvBApS5PTb-ppX6-550" value="cat_per_numero_horas" style="ellipse;whiteSpace=wrap;html=1;" parent="WIyWlLk6GJQsqaUBKTNV-1" vertex="1">
          <mxGeometry x="2320" y="1220" width="140" height="30" as="geometry" />
        </mxCell>
        <mxCell id="-X0jiBvBApS5PTb-ppX6-551" value="cat_per_justificacion" style="ellipse;whiteSpace=wrap;html=1;" parent="WIyWlLk6GJQsqaUBKTNV-1" vertex="1">
          <mxGeometry x="2320" y="1260" width="120" height="30" as="geometry" />
        </mxCell>
        <mxCell id="-X0jiBvBApS5PTb-ppX6-552" value="&lt;u&gt;perm_id&lt;/u&gt;" style="ellipse;whiteSpace=wrap;html=1;" parent="WIyWlLk6GJQsqaUBKTNV-1" vertex="1">
          <mxGeometry x="1480" y="1100" width="120" height="30" as="geometry" />
        </mxCell>
        <mxCell id="-X0jiBvBApS5PTb-ppX6-553" value="cat_per_id" style="ellipse;whiteSpace=wrap;html=1;" parent="WIyWlLk6GJQsqaUBKTNV-1" vertex="1">
          <mxGeometry x="1502.5" y="1060" width="120" height="30" as="geometry" />
        </mxCell>
        <mxCell id="-X0jiBvBApS5PTb-ppX6-554" value="vac_sol_id" style="ellipse;whiteSpace=wrap;html=1;" parent="WIyWlLk6GJQsqaUBKTNV-1" vertex="1">
          <mxGeometry x="1630" y="1060" width="120" height="30" as="geometry" />
        </mxCell>
        <mxCell id="-X0jiBvBApS5PTb-ppX6-555" value="pers_cedula" style="ellipse;whiteSpace=wrap;html=1;" parent="WIyWlLk6GJQsqaUBKTNV-1" vertex="1">
          <mxGeometry x="1790" y="1060" width="120" height="30" as="geometry" />
        </mxCell>
        <mxCell id="-X0jiBvBApS5PTb-ppX6-556" value="perm_numero_oficio" style="ellipse;whiteSpace=wrap;html=1;" parent="WIyWlLk6GJQsqaUBKTNV-1" vertex="1">
          <mxGeometry x="1920" y="1060" width="130" height="30" as="geometry" />
        </mxCell>
        <mxCell id="-X0jiBvBApS5PTb-ppX6-557" value="perm_cedula_autoriza" style="ellipse;whiteSpace=wrap;html=1;" parent="WIyWlLk6GJQsqaUBKTNV-1" vertex="1">
          <mxGeometry x="1930" y="1100" width="140" height="30" as="geometry" />
        </mxCell>
        <mxCell id="-X0jiBvBApS5PTb-ppX6-558" value="perm_estado" style="ellipse;whiteSpace=wrap;html=1;" parent="WIyWlLk6GJQsqaUBKTNV-1" vertex="1">
          <mxGeometry x="1440" y="1209" width="120" height="30" as="geometry" />
        </mxCell>
        <mxCell id="-X0jiBvBApS5PTb-ppX6-559" value="perm_fecha_aprobacion" style="ellipse;whiteSpace=wrap;html=1;" parent="WIyWlLk6GJQsqaUBKTNV-1" vertex="1">
          <mxGeometry x="1370" y="1250" width="155" height="30" as="geometry" />
        </mxCell>
        <mxCell id="-X0jiBvBApS5PTb-ppX6-560" value="perm_firma_jefe" style="ellipse;whiteSpace=wrap;html=1;" parent="WIyWlLk6GJQsqaUBKTNV-1" vertex="1">
          <mxGeometry x="1405" y="1290" width="120" height="30" as="geometry" />
        </mxCell>
        <mxCell id="-X0jiBvBApS5PTb-ppX6-561" value="perm_estado_solicitud_permiso" style="ellipse;whiteSpace=wrap;html=1;" parent="WIyWlLk6GJQsqaUBKTNV-1" vertex="1">
          <mxGeometry x="1320" y="1330" width="205" height="30" as="geometry" />
        </mxCell>
        <mxCell id="-X0jiBvBApS5PTb-ppX6-562" value="perm_archivo_respaldo" style="ellipse;whiteSpace=wrap;html=1;" parent="WIyWlLk6GJQsqaUBKTNV-1" vertex="1">
          <mxGeometry x="1390" y="1368.88" width="150" height="30" as="geometry" />
        </mxCell>
        <mxCell id="-X0jiBvBApS5PTb-ppX6-563" value="perm_observacion" style="ellipse;whiteSpace=wrap;html=1;" parent="WIyWlLk6GJQsqaUBKTNV-1" vertex="1">
          <mxGeometry x="1550" y="1378.88" width="120" height="30" as="geometry" />
        </mxCell>
        <mxCell id="-X0jiBvBApS5PTb-ppX6-564" value="perm_remuneracion" style="ellipse;whiteSpace=wrap;html=1;" parent="WIyWlLk6GJQsqaUBKTNV-1" vertex="1">
          <mxGeometry x="1620" y="1338.88" width="130" height="30" as="geometry" />
        </mxCell>
        <mxCell id="-X0jiBvBApS5PTb-ppX6-565" value="perm_nombre_autoriza" style="ellipse;whiteSpace=wrap;html=1;" parent="WIyWlLk6GJQsqaUBKTNV-1" vertex="1">
          <mxGeometry x="1980" y="1209" width="150" height="30" as="geometry" />
        </mxCell>
        <mxCell id="-X0jiBvBApS5PTb-ppX6-566" value="perm_fecha_registro" style="ellipse;whiteSpace=wrap;html=1;" parent="WIyWlLk6GJQsqaUBKTNV-1" vertex="1">
          <mxGeometry x="2010" y="1250" width="130" height="30" as="geometry" />
        </mxCell>
        <mxCell id="-X0jiBvBApS5PTb-ppX6-567" value="perm_fecha_pedido" style="ellipse;whiteSpace=wrap;html=1;" parent="WIyWlLk6GJQsqaUBKTNV-1" vertex="1">
          <mxGeometry x="2010" y="1290" width="130" height="30" as="geometry" />
        </mxCell>
        <mxCell id="-X0jiBvBApS5PTb-ppX6-568" value="perm_fecha_hora_inicio" style="ellipse;whiteSpace=wrap;html=1;" parent="WIyWlLk6GJQsqaUBKTNV-1" vertex="1">
          <mxGeometry x="2010" y="1330" width="150" height="30" as="geometry" />
        </mxCell>
        <mxCell id="-X0jiBvBApS5PTb-ppX6-569" value="perm_fecha_hora_fin" style="ellipse;whiteSpace=wrap;html=1;" parent="WIyWlLk6GJQsqaUBKTNV-1" vertex="1">
          <mxGeometry x="2000" y="1368.88" width="140" height="30" as="geometry" />
        </mxCell>
        <mxCell id="-X0jiBvBApS5PTb-ppX6-570" value="perm_duracion_dias" style="ellipse;whiteSpace=wrap;html=1;" parent="WIyWlLk6GJQsqaUBKTNV-1" vertex="1">
          <mxGeometry x="1870" y="1378.88" width="130" height="30" as="geometry" />
        </mxCell>
        <mxCell id="-X0jiBvBApS5PTb-ppX6-571" value="perm_duracion_horas" style="ellipse;whiteSpace=wrap;html=1;" parent="WIyWlLk6GJQsqaUBKTNV-1" vertex="1">
          <mxGeometry x="1780" y="1338.88" width="130" height="30" as="geometry" />
        </mxCell>
        <mxCell id="-X0jiBvBApS5PTb-ppX6-572" value="aud_dato_actual" style="ellipse;whiteSpace=wrap;html=1;" parent="WIyWlLk6GJQsqaUBKTNV-1" vertex="1">
          <mxGeometry x="1047" y="1015" width="120" height="30" as="geometry" />
        </mxCell>
        <mxCell id="-X0jiBvBApS5PTb-ppX6-573" value="aud_accion" style="ellipse;whiteSpace=wrap;html=1;" parent="WIyWlLk6GJQsqaUBKTNV-1" vertex="1">
          <mxGeometry x="947" y="1045" width="120" height="30" as="geometry" />
        </mxCell>
        <mxCell id="-X0jiBvBApS5PTb-ppX6-574" value="aud_dato_modificado" style="ellipse;whiteSpace=wrap;html=1;" parent="WIyWlLk6GJQsqaUBKTNV-1" vertex="1">
          <mxGeometry x="1077" y="975" width="130" height="30" as="geometry" />
        </mxCell>
        <mxCell id="-X0jiBvBApS5PTb-ppX6-575" value="&lt;u&gt;aud_id&lt;/u&gt;" style="ellipse;whiteSpace=wrap;html=1;" parent="WIyWlLk6GJQsqaUBKTNV-1" vertex="1">
          <mxGeometry x="727" y="930" width="120" height="30" as="geometry" />
        </mxCell>
        <mxCell id="-X0jiBvBApS5PTb-ppX6-576" value="aud_usuario" style="ellipse;whiteSpace=wrap;html=1;" parent="WIyWlLk6GJQsqaUBKTNV-1" vertex="1">
          <mxGeometry x="727" y="965" width="120" height="30" as="geometry" />
        </mxCell>
        <mxCell id="-X0jiBvBApS5PTb-ppX6-577" value="aud_fecha" style="ellipse;whiteSpace=wrap;html=1;" parent="WIyWlLk6GJQsqaUBKTNV-1" vertex="1">
          <mxGeometry x="747" y="1005" width="120" height="30" as="geometry" />
        </mxCell>
        <mxCell id="-X0jiBvBApS5PTb-ppX6-578" value="aud_nombre_tabla" style="ellipse;whiteSpace=wrap;html=1;" parent="WIyWlLk6GJQsqaUBKTNV-1" vertex="1">
          <mxGeometry x="812" y="1045" width="120" height="30" as="geometry" />
        </mxCell>
        <mxCell id="-X0jiBvBApS5PTb-ppX6-579" value="&lt;u&gt;aus_id&lt;/u&gt;" style="ellipse;whiteSpace=wrap;html=1;" parent="WIyWlLk6GJQsqaUBKTNV-1" vertex="1">
          <mxGeometry x="1570" y="1521.12" width="120" height="30" as="geometry" />
        </mxCell>
        <mxCell id="-X0jiBvBApS5PTb-ppX6-580" value="perm_id" style="ellipse;whiteSpace=wrap;html=1;" parent="WIyWlLk6GJQsqaUBKTNV-1" vertex="1">
          <mxGeometry x="1600" y="1561.12" width="120" height="30" as="geometry" />
        </mxCell>
        <mxCell id="-X0jiBvBApS5PTb-ppX6-581" value="aus_cedula_jefe" style="ellipse;whiteSpace=wrap;html=1;" parent="WIyWlLk6GJQsqaUBKTNV-1" vertex="1">
          <mxGeometry x="1710" y="1581.12" width="120" height="30" as="geometry" />
        </mxCell>
        <mxCell id="-X0jiBvBApS5PTb-ppX6-582" value="aus_firma_jefe" style="ellipse;whiteSpace=wrap;html=1;" parent="WIyWlLk6GJQsqaUBKTNV-1" vertex="1">
          <mxGeometry x="1820" y="1561.12" width="120" height="30" as="geometry" />
        </mxCell>
        <mxCell id="-X0jiBvBApS5PTb-ppX6-583" value="aus_estado" style="ellipse;whiteSpace=wrap;html=1;" parent="WIyWlLk6GJQsqaUBKTNV-1" vertex="1">
          <mxGeometry x="1850" y="1521.12" width="120" height="30" as="geometry" />
        </mxCell>
        <mxCell id="-X0jiBvBApS5PTb-ppX6-584" value="aud_justificacion" style="ellipse;whiteSpace=wrap;html=1;" parent="WIyWlLk6GJQsqaUBKTNV-1" vertex="1">
          <mxGeometry x="1087" y="935" width="120" height="30" as="geometry" />
        </mxCell>
        <mxCell id="-X0jiBvBApS5PTb-ppX6-585" value="&lt;u&gt;log_sis_id&lt;/u&gt;" style="ellipse;whiteSpace=wrap;html=1;" parent="WIyWlLk6GJQsqaUBKTNV-1" vertex="1">
          <mxGeometry x="727" y="1159.8799999999999" width="120" height="30" as="geometry" />
        </mxCell>
        <mxCell id="-X0jiBvBApS5PTb-ppX6-586" value="log_sis_usuario" style="ellipse;whiteSpace=wrap;html=1;" parent="WIyWlLk6GJQsqaUBKTNV-1" vertex="1">
          <mxGeometry x="807" y="1124.8799999999999" width="120" height="30" as="geometry" />
        </mxCell>
        <mxCell id="-X0jiBvBApS5PTb-ppX6-587" value="log_sis_fecha_hora_ingreso" style="ellipse;whiteSpace=wrap;html=1;" parent="WIyWlLk6GJQsqaUBKTNV-1" vertex="1">
          <mxGeometry x="947" y="1124.88" width="190" height="30" as="geometry" />
        </mxCell>
        <mxCell id="-X0jiBvBApS5PTb-ppX6-588" value="log_sis_id_sesion" style="ellipse;whiteSpace=wrap;html=1;" parent="WIyWlLk6GJQsqaUBKTNV-1" vertex="1">
          <mxGeometry x="1047" y="1160.9999999999998" width="120" height="30" as="geometry" />
        </mxCell>
        <mxCell id="-X0jiBvBApS5PTb-ppX6-589" value="cat_per_tipo" style="ellipse;whiteSpace=wrap;html=1;" parent="WIyWlLk6GJQsqaUBKTNV-1" vertex="1">
          <mxGeometry x="595" y="1015" width="120" height="30" as="geometry" />
        </mxCell>
        <mxCell id="-X0jiBvBApS5PTb-ppX6-590" value="cat_per_tipo" style="ellipse;whiteSpace=wrap;html=1;" parent="WIyWlLk6GJQsqaUBKTNV-1" vertex="1">
          <mxGeometry x="600" y="1105" width="120" height="30" as="geometry" />
        </mxCell>
        <mxCell id="-X0jiBvBApS5PTb-ppX6-591" value="cat_per_tipo" style="ellipse;whiteSpace=wrap;html=1;" parent="WIyWlLk6GJQsqaUBKTNV-1" vertex="1">
          <mxGeometry x="595" y="1060" width="120" height="30" as="geometry" />
        </mxCell>
        <mxCell id="jjZtbZLdB4Hmj-De6GB3-0" style="edgeStyle=orthogonalEdgeStyle;rounded=0;orthogonalLoop=1;jettySize=auto;html=1;entryX=0.883;entryY=-0.001;entryDx=0;entryDy=0;entryPerimeter=0;" parent="WIyWlLk6GJQsqaUBKTNV-1" source="-X0jiBvBApS5PTb-ppX6-326" target="-X0jiBvBApS5PTb-ppX6-326" edge="1">
          <mxGeometry relative="1" as="geometry">
            <Array as="points">
              <mxPoint x="1270" y="420" />
              <mxPoint x="1296" y="420" />
            </Array>
          </mxGeometry>
        </mxCell>
        <mxCell id="jjZtbZLdB4Hmj-De6GB3-1" value="1" style="edgeLabel;html=1;align=center;verticalAlign=middle;resizable=0;points=[];" parent="jjZtbZLdB4Hmj-De6GB3-0" vertex="1" connectable="0">
          <mxGeometry x="-0.8124" relative="1" as="geometry">
            <mxPoint as="offset" />
          </mxGeometry>
        </mxCell>
        <mxCell id="jjZtbZLdB4Hmj-De6GB3-2" value="N" style="edgeLabel;html=1;align=center;verticalAlign=middle;resizable=0;points=[];" parent="jjZtbZLdB4Hmj-De6GB3-0" vertex="1" connectable="0">
          <mxGeometry x="0.6546" y="-1" relative="1" as="geometry">
            <mxPoint as="offset" />
          </mxGeometry>
        </mxCell>
      </root>
    </mxGraphModel>
  </diagram>
</mxfile>
